<svg width="963" height="241" viewBox="0 0 963 241" fill="none" xmlns="http://www.w3.org/2000/svg">
<path d="M439.579 145.487V149.034H452.142V155.406H439.85V176.727H432.652V155.406H428.06V149.034H432.601V145.164C432.601 138.793 437.309 134.639 444.119 134.639C447.279 134.639 450.594 135.413 453.2 136.303L451.432 142.997C448.891 141.888 446.286 141.114 443.9 141.114C441.243 141.114 439.579 142.494 439.579 145.487Z" fill="#0B5BB2"/>
<path d="M456.347 176.714V135.194H463.596V176.714H456.347Z" fill="#0B5BB2"/>
<path d="M504.123 162.59C504.123 170.897 496.926 177.707 486.904 177.707C476.881 177.707 469.684 170.897 469.684 162.59C469.684 153.342 477.655 148.079 486.904 148.079C496.152 148.079 504.123 153.342 504.123 162.59ZM477.049 162.59C477.049 167.247 481.422 171.387 486.904 171.387C492.385 171.387 496.758 167.234 496.758 162.59C496.758 157.444 492.656 154.451 486.904 154.451C481.151 154.451 477.049 157.444 477.049 162.59Z" fill="#0B5BB2"/>
<path d="M533.622 157.779L525.432 176.714H517.963L505.839 149.034H513.759L521.781 168.085L529.804 149.034H537.44L545.463 168.021L553.551 149.034H561.303L549.178 176.714H541.761L533.622 157.779Z" fill="#0B5BB2"/>
<path d="M591.976 168.356L594.13 174.109C590.415 175.992 585.217 177.707 580.122 177.707C569.829 177.707 563.018 171.181 563.018 162.874C563.018 153.626 570.886 148.092 580.122 148.092C588.532 148.092 594.852 153.574 594.852 161.042C594.852 162.255 594.684 163.532 594.349 164.809H570.538C571.596 168.846 575.633 171.116 580.831 171.116C584.598 171.116 588.029 170.394 591.963 168.343L591.976 168.356ZM570.719 159.443H587.5C586.777 156.18 584.017 154.232 579.696 154.232C574.937 154.232 571.828 156.064 570.732 159.443H570.719Z" fill="#0B5BB2"/>
<path d="M622.803 149.202L621.255 155.844C619.927 155.238 618.482 154.903 617.437 154.903C612.846 154.903 607.918 157.895 607.918 162.99V176.714H600.605V149.034H607.918V155.174C609.518 152.181 613.349 148.092 618.16 148.092C619.708 148.092 621.423 148.531 622.816 149.202H622.803Z" fill="#0B5BB2"/>
<path d="M674.178 162.59C674.178 170.897 667.2 177.707 658.12 177.707C652.586 177.707 645.053 175.553 641.455 173.941V135.181H648.768V155.174C650.6 151.356 654.972 148.092 660.454 148.092C667.819 148.092 674.191 153.626 674.191 162.603L674.178 162.59ZM648.768 162.977V169.672C651.98 170.729 654.856 171.284 658.236 171.284C662.776 171.284 666.813 167.247 666.813 162.59C666.813 157.611 663.099 154.89 658.287 154.89C653.476 154.89 648.768 157.882 648.768 162.977Z" fill="#0B5BB2"/>
<path d="M712.874 162.59C712.874 170.897 705.677 177.707 695.655 177.707C685.632 177.707 678.435 170.897 678.435 162.59C678.435 153.342 686.406 148.079 695.655 148.079C704.903 148.079 712.874 153.342 712.874 162.59ZM685.8 162.59C685.8 167.247 690.173 171.387 695.655 171.387C701.136 171.387 705.509 167.234 705.509 162.59C705.509 157.444 701.407 154.451 695.655 154.451C689.902 154.451 685.8 157.444 685.8 162.59Z" fill="#0B5BB2"/>
<path d="M718.679 165.093V149.034H725.992V164.151C725.992 168.64 728.649 170.846 733.022 170.846C737.678 170.846 741.599 168.305 741.599 162.436V149.034H748.913V176.714H741.599V170.626C739.613 174.56 735.344 177.604 730.3 177.604C722.884 177.604 718.679 172.626 718.679 165.093Z" fill="#0B5BB2"/>
<path d="M753.776 149.589L759.258 149.253L760.251 140.727H766.339V149.034H777.857V155.406H766.339V165.867C766.339 168.859 767.951 170.91 770.828 170.91C772.982 170.91 775.42 170.02 777.2 168.924L778.812 175.179C776.49 176.392 772.556 177.669 769.628 177.669C762.766 177.669 759.051 173.129 759.051 166.15V155.406H753.789V149.589H753.776Z" fill="#0B5BB2"/>
<path d="M787.647 136.742C790.085 136.742 792.02 138.676 792.02 141.063C792.02 143.449 790.085 145.435 787.647 145.435C785.21 145.435 783.275 143.5 783.275 141.063C783.275 138.625 785.21 136.742 787.647 136.742ZM791.246 176.714H784.049V149.034H791.246V176.714Z" fill="#0B5BB2"/>
<path d="M797.45 162.59C797.45 154.284 804.428 147.473 813.509 147.473C819.043 147.473 826.575 149.627 830.174 151.24V190H822.861V170.007C821.029 173.825 816.656 177.088 811.174 177.088C803.809 177.088 797.45 171.555 797.45 162.577V162.59ZM822.861 162.203V155.561C819.649 154.451 816.721 153.897 813.393 153.897C808.853 153.897 804.815 157.934 804.815 162.59C804.815 167.569 808.53 170.291 813.341 170.291C818.153 170.291 822.861 167.363 822.861 162.203Z" fill="#0B5BB2"/>
<path d="M837.797 165.093V149.034H845.111V164.151C845.111 168.64 847.768 170.846 852.14 170.846C856.797 170.846 860.718 168.305 860.718 162.436V149.034H868.031V176.714H860.718V170.626C858.732 174.56 854.462 177.604 849.419 177.604C842.002 177.604 837.797 172.626 837.797 165.093Z" fill="#0B5BB2"/>
<path d="M903.077 168.356L905.231 174.109C901.516 175.992 896.318 177.707 891.223 177.707C880.93 177.707 874.12 171.181 874.12 162.874C874.12 153.626 881.975 148.092 891.223 148.092C899.633 148.092 905.953 153.574 905.953 161.042C905.953 162.255 905.786 163.532 905.45 164.809H881.64C882.697 168.846 886.734 171.116 891.933 171.116C895.699 171.116 899.13 170.394 903.064 168.343L903.077 168.356ZM881.807 159.443H898.575C897.853 156.18 895.093 154.232 890.772 154.232C886.012 154.232 882.916 156.064 881.807 159.443Z" fill="#0B5BB2"/>
<path d="M380 46.0129H409.357C423.958 46.0129 432.691 51.0434 432.691 61.9298C432.691 67.4504 429.969 71.4103 425.184 73.8868C431.775 76.273 435.825 80.8907 435.825 87.4174C435.825 98.4715 426.925 103.747 412.324 103.747H380V46.0258V46.0129ZM395.259 59.363V69.2562H409.357C414.31 69.2562 416.619 67.6955 416.619 64.3031C416.619 60.9108 414.31 59.3501 409.357 59.3501H395.259V59.363ZM395.259 79.6525V90.4615H412.324C417.277 90.4615 419.741 88.5654 419.741 85.0183C419.741 81.4712 417.264 79.6525 412.324 79.6525H395.259Z" fill="#0B5BB2"/>
<path d="M446.466 46.0129H461.726V90.4615H496.861V103.734H446.479V46.0129H446.466Z" fill="#0B5BB2"/>
<path d="M503.865 78.6593V46H519.124V78.6593C519.124 87.8173 526.709 91.9319 535.286 91.9319C543.864 91.9319 551.448 87.8044 551.448 78.6593V46H566.707V78.6593C566.707 97.4654 551.616 105.785 535.286 105.785C518.957 105.785 503.865 97.4525 503.865 78.6593Z" fill="#0B5BB2"/>
<path d="M579.812 46.0129H630.039V59.3759H594.246V68.0308H626.815V80.8907H594.246V90.4615H631.355V103.734H579.812V46.0129Z" fill="#0B5BB2"/>
<path d="M658.494 66.2121L657.255 103.734H641.996L643.647 46.0129H663.021L680.009 77.1888H680.834L697.822 46.0129H717.195L718.846 103.734H703.587L702.349 66.2895L684.704 98.291H676.126L658.481 66.2121H658.494Z" fill="#0B5BB2"/>
<path d="M732.377 46.0129H782.604V59.3759H746.81V68.0308H779.379V80.8907H746.81V90.4615H783.92V103.734H732.377V46.0129Z" fill="#0B5BB2"/>
<path d="M794.974 46.0129H810.233V90.4615H845.369V103.734H794.987V46.0129H794.974Z" fill="#0B5BB2"/>
<path d="M853.185 46.0129H868.444V90.4615H903.58V103.734H853.198V46.0129H853.185Z" fill="#0B5BB2"/>
<path d="M911.409 46.0129H961.637V59.3759H925.843V68.0308H958.412V80.8907H925.843V90.4615H962.952V103.734H911.409V46.0129Z" fill="#0B5BB2"/>
<path d="M66.6179 161.384C46.0179 168.654 25.5579 156.494 21.4379 153.974C0.15788 141.004 20.6679 125.034 37.4079 132.714C31.4179 124.704 19.7279 109.754 31.2679 101.294C45.4079 90.9238 55.7779 111.894 60.7179 122.274L62.1579 111.494C68.5479 93.3938 90.8079 94.7438 89.0479 117.304C88.2779 127.174 87.1079 152.024 66.6179 161.394V161.384Z" fill="#0B5BB2"/>
<path d="M325.288 218.874C327.068 217.534 328.458 215.514 328.568 213.284C328.678 211.054 327.258 208.704 325.088 208.194C323.418 207.794 321.638 208.514 320.338 209.644C319.048 210.774 318.148 212.284 317.268 213.754C315.378 216.934 313.498 220.104 311.608 223.284C315.708 225.234 319.808 227.194 323.908 229.144C325.938 230.114 328.368 231.084 330.348 230.004C332.708 228.714 332.808 225.114 331.238 222.924C329.668 220.734 327.048 219.624 324.548 218.614" fill="#0B5BB2"/>
<path d="M7.88787 199.334C5.75787 198.974 3.41787 199.344 1.77787 200.754C0.137868 202.154 -0.562134 204.724 0.517866 206.584C1.35787 208.024 3.03787 208.794 4.69787 208.954C6.35787 209.114 8.00787 208.734 9.62787 208.374C13.1079 207.584 16.5979 206.794 20.0779 205.994C18.7179 201.814 17.3579 197.634 15.9979 193.454C15.3279 191.384 14.3879 189.034 12.3079 188.364C9.82787 187.564 7.23787 189.894 6.74787 192.454C6.25787 195.004 7.22787 197.594 8.17787 200.014" fill="#0B5BB2"/>
<path d="M230.358 169.224C223.688 155.694 211.268 159.064 206.988 161.094C191.728 168.324 179.028 181.474 171.258 198.094L175.688 140.364L167.648 123.864L157.188 197.744C154.268 185.024 148.198 173.564 139.588 164.774C136.498 161.614 126.738 154.664 116.548 164.334C110.248 170.314 116.928 184.314 120.958 190.224C132.368 206.954 146.668 216.294 154.008 220.314L151.588 237.414H168.248L170.208 211.894C178.378 210.854 197.428 207.094 216.308 193.654C222.568 189.204 234.498 177.584 230.378 169.214L230.358 169.224Z" fill="#0B5BB2"/>
<path d="M67.8279 167.014L120.008 236.804H140.158L74.5379 163.904L67.8279 167.014Z" fill="#0B5BB2"/>
<path d="M266.348 176.514C258.448 187.484 204.708 239.314 204.708 239.314H185.838L259.798 172.484L266.348 176.514Z" fill="#0B5BB2"/>
<path d="M115.878 238.624C88.8179 234.454 82.3779 232.794 67.6079 225.134C48.1179 215.034 53.6379 202.194 57.0279 200.914C59.9479 199.804 66.6079 200.614 72.1979 205.844C88.9879 221.574 115.878 238.624 115.878 238.624Z" fill="#0B5BB2"/>
<path d="M75.4379 237.654C57.7979 241.274 51.3279 240.194 45.8279 238.924C31.7579 235.674 30.9179 227.804 32.7179 226.234C34.2679 224.884 40.4379 226.174 44.9879 228.344C59.5479 235.314 75.4379 237.654 75.4379 237.654Z" fill="#0B5BB2"/>
<path d="M216.188 238.184C230.448 239.734 244.888 241.274 259.028 238.644C273.178 236.014 287.228 228.734 296.058 215.534C297.888 212.804 299.528 209.634 299.498 206.164C299.468 202.694 297.128 199.074 294.168 199.254C292.688 199.344 291.358 200.314 290.108 201.244C269.738 216.344 247.368 227.724 224.058 234.864L216.178 238.184H216.188Z" fill="#0B5BB2"/>
<path d="M329.878 143.654C329.988 142.864 329.918 142.174 329.568 141.644C327.658 138.754 317.878 141.774 315.558 139.104C313.288 136.494 317.668 127.234 315.008 124.874C312.428 122.574 303.738 127.994 300.808 125.984C297.878 123.974 299.788 113.924 296.718 112.344C293.558 110.724 286.508 118.144 283.248 116.974C279.918 115.774 279.208 105.564 275.818 104.824C275.198 104.684 274.528 104.874 273.828 105.254C272.478 106.294 271.178 107.414 269.918 108.624C269.418 109.134 268.908 109.654 268.408 110.134C266.588 112.044 264.888 114.124 263.338 116.394C250.038 135.804 252.668 160.734 269.218 172.074C285.768 183.414 309.968 176.884 323.268 157.474C324.818 155.214 326.148 152.874 327.278 150.484C327.548 149.844 327.848 149.184 328.148 148.534C328.818 146.924 329.398 145.304 329.878 143.674V143.654Z" fill="#0B5BB2"/>
<path d="M209.008 52.8638C272.868 52.7038 233.478 -8.53619 196.018 34.2738C226.598 -7.42619 152.438 -19.2862 174.538 45.8638C149.968 -22.0862 84.1679 30.9438 161.928 57.9238C94.5779 39.1738 88.7678 114.444 141.578 89.4138C95.4179 121.154 158.918 152.384 169.868 97.5838C166.638 158.024 239.738 147.894 196.958 86.0738C245.768 141.474 273.518 54.0638 209.008 52.8638ZM188.198 71.9238C187.318 73.5338 191.438 79.5638 189.938 80.7138C188.508 81.8138 183.688 76.3138 181.828 76.8138C180.128 77.2738 178.908 84.5338 176.948 84.3638C174.638 84.1738 174.448 76.7338 172.558 75.7738C170.528 74.7438 164.348 78.7938 162.998 77.1238C161.598 75.3838 166.948 70.3638 166.498 68.2138C166.058 66.1138 159.128 63.6038 159.798 61.3838C160.368 59.4738 167.458 61.2638 168.698 59.8838C169.968 58.4638 167.378 51.6538 169.118 50.8638C170.828 50.0938 174.398 56.5238 176.318 56.4138C178.178 56.3038 180.918 49.4638 182.778 50.0138C184.418 50.5038 182.868 57.6638 184.218 58.5938C185.618 59.5538 191.728 55.5238 192.738 56.8238C193.778 58.1638 188.308 62.9938 188.828 64.5538C189.358 66.1438 196.608 66.9038 196.508 68.5838C196.388 70.4738 189.088 70.3138 188.198 71.9238Z" fill="#0B5BB2"/>
</svg>
