<?xml version="1.0" encoding="UTF-8"?>
<svg id="uuid-39f75b25-f979-4acb-b741-b98e37a377c0" data-name="Слой 2" xmlns="http://www.w3.org/2000/svg" viewBox="0 0 273.01 422.44">
  <defs>
    <style>
      .uuid-1b162949-646e-43b6-8d04-c499cfa77dc0 {
        fill: #bde1ff;
      }

      .uuid-84e0e1d1-a0b1-427d-808d-aa06bae864e9 {
        fill: #ff92be;
      }

      .uuid-a30b3650-acff-4473-a2a2-da8b9d711343 {
        fill: #fff;
      }

      .uuid-2bd4ed41-e7be-4a15-9eed-8ce1206afc15 {
        fill: #0b5bb2;
      }
    </style>
  </defs>
  <g id="uuid-e4e38a23-f3ad-43a1-a2a3-51bac101b42a" data-name="Layer 1">
    <g>
      <path class="uuid-1b162949-646e-43b6-8d04-c499cfa77dc0" d="M136.1,380.32c-.63-1.64-1.52-3.2-2.59-4.59-3.92-5.16-9.99-8.33-16.26-9.95-6.27-1.62-12.8-1.82-19.28-2,10.72-5.68,23.18-8.01,35.22-6.59,1.27.16,2.95.12,3.38-1.09.42-1.19-.79-2.27-1.86-2.91-8.17-4.83-17.05-5.95-26.2-7.5-16.91-2.87-37.42,1.42-47.92,16.06,5.68-7.93,6.53-19.05,2.08-27.73-9.08-17.76-53.77-25.26-49.01,3.7,1.01,6.13,6.07,10.96,11.77,13.41,5.7,2.45,12.02,2.93,18.21,3.38-2.93,12.82,1.88,26.72,11.02,36.17,15.37,15.92,37.32,18.06,57.65,11.59,7.83-2.49,22.94-4.61,24.64-14.24.45-2.59.08-5.24-.87-7.71l.02-.02Z"/>
      <path class="uuid-2bd4ed41-e7be-4a15-9eed-8ce1206afc15" d="M128.76,327.39c-.44-1.13-.93-2.23-1.52-3.28-.26-.44-.51-.87-.79-1.31-.04-.06-.34-.49-.1-.06-.18-.34-.24-.53-.49-.85-.2-.24-.4-.47-.59-.71-1.48-1.82-3.24-3.44-5.18-4.75-3.92-2.63-8.46-4.39-13.07-5.36-9.59-2.02-20.39-1.09-28.48,4.87-5.12,3.78-9.02,8.92-11.04,14.99l5.22.71c-.49-9.93-6.9-18.85-15.54-23.52-9.95-5.38-22.29-5.04-32.65-.99-9.75,3.84-18.37,10.8-22.41,20.67-2.04,5-2.59,10.54-1.68,15.84.85,4.98,3.34,9.61,6.9,13.19,6.61,6.63,16.08,9.49,24.98,11.51,1.11.26,2.22.49,3.32.73l-1.6-3.96c-2.23,4.37-2.75,9.22-1.8,14,.91,4.53,3.11,8.8,5.81,12.52,5.64,7.73,13.55,13.41,22.03,17.66,8.48,4.25,17.15,6.9,26.28,8.19,9.14,1.29,18.87,1.21,28.2-.44,9.08-1.58,17.96-4.39,26.11-8.72.99-.53,1.98-1.09,2.95-1.68h-2.77c7.67,4.33,15.6,8.31,23.93,11.23s16.89,4.73,25.61,4.53c4.01-.1,8.07-.57,11.95-1.66,3.5-.97,6.9-2.45,10.05-4.25,6.23-3.56,11.71-8.6,15.53-14.69,3.82-6.09,5.7-12.88,4.96-19.8-.12-1.03-.26-2.06-.45-3.09l-2.69,3.52c9.33-.14,18.99-2.55,26.68-7.95,4.05-2.85,7.52-6.39,10.11-10.64,2.59-4.25,4.35-9.14,5.34-14.04,1.78-8.86,1.58-18.02-1.01-26.72-2.45-8.21-6.98-16.02-13.61-21.56-1.76-1.46-3.62-2.79-5.6-3.94-1.8-1.05-3.6-2.12-5.54-2.89-1.27-.49-2.63-.73-3.98-.57-1.7.2-3.28.77-4.88,1.36-1.09.4-2.18.79-3.24,1.19-1.27.47-2.25,1.78-1.8,3.16.4,1.25,1.82,2.29,3.16,1.8,1.84-.67,3.64-1.46,5.5-2.08.61-.2,1.21-.32,1.84-.45-.97.2-.08.02.24.02h.38c.65.02-.59-.14-.12-.02.26.06.51.12.77.2.14.04.28.08.42.14.08.04.18.06.26.1.38.14-.51-.24-.24-.1.73.36,1.44.71,2.16,1.11,1.84,1.03,3.68,2.1,5.4,3.32.22.16.44.32.63.47.18.12.75.44.18.14.42.22.79.63,1.15.95.77.65,1.52,1.36,2.23,2.08.71.71,1.36,1.42,2,2.2.3.36.59.71.89,1.09.1.12.32.32-.08-.1.08.08.14.2.22.28.18.24.36.47.51.71,1.17,1.62,2.2,3.32,3.12,5.08.47.89.89,1.78,1.31,2.71.1.22.18.44.28.65-.3-.63,0,.04.08.22.2.49.4.99.57,1.5.69,1.9,1.27,3.84,1.72,5.81.24.99.44,1.98.59,2.99.08.47.16.95.22,1.42s0-.08,0-.14c.04.14.04.3.06.44.04.28.06.53.1.81.22,2.02.3,4.05.28,6.07,0,1.01-.06,2.02-.14,3.03-.04.49-.08,1.01-.14,1.5-.02.26-.06.49-.08.75,0,.14-.04.28-.06.42-.02.2,0,.14.02-.16,0,.1-.02.2-.04.32-.34,2.33-.85,4.65-1.54,6.9-.34,1.13-.73,2.23-1.17,3.34-.06.14-.1.26-.16.38-.04.08-.2.49-.06.16s-.04.08-.08.16c-.06.16-.14.32-.22.47-.24.53-.49,1.07-.75,1.58-.53,1.05-1.11,2.06-1.74,3.05-.32.49-.65.97-.99,1.46-.16.22-.32.45-.47.67-.08.12-.16.22-.26.34-.3.42.2-.22-.02.02-1.42,1.72-2.93,3.32-4.63,4.75-.2.16-.4.32-.59.47-.1.08-.2.16-.3.24.06-.06.47-.36.1-.08-.45.34-.91.67-1.38.99-.89.59-1.8,1.17-2.73,1.68s-1.9,1.01-2.89,1.46c-.24.1-.45.2-.69.32-.45.2.06-.04.12-.06-.12.04-.24.1-.36.14-.53.22-1.07.42-1.6.61-2.06.73-4.15,1.33-6.29,1.76-.49.1-1.01.2-1.52.3-.53.1-1.17.3-1.72.28.57.02.38-.04.16-.02-.12,0-.26.04-.38.04-.26.04-.51.06-.77.08-.57.06-1.15.12-1.72.16-1.09.08-2.18.12-3.26.12-1.92,0-3.03,1.76-2.69,3.52.08.4.14.81.22,1.23.08.51-.06-.57,0-.04.02.24.06.45.08.69.08.79.12,1.6.1,2.41s-.04,1.58-.12,2.37c0,.18-.04.34-.06.51,0,.1-.04.24-.04.34,0,.02.1-.63.04-.32-.06.42-.12.83-.2,1.25-.3,1.56-.71,3.09-1.27,4.57-.12.36-.26.69-.4,1.03-.24.59.18-.42,0,.04-.08.18-.16.36-.24.55-.34.73-.69,1.44-1.09,2.14-.79,1.42-1.66,2.79-2.65,4.07-.06.08-.1.14-.16.22-.3.38.1-.12.12-.16-.12.14-.22.28-.34.42-.28.34-.55.67-.85,1.01-.53.63-1.11,1.23-1.68,1.82-1.17,1.19-2.41,2.31-3.7,3.36-.16.14-.34.26-.49.4,0,0,.47-.36.24-.18-.08.06-.14.12-.22.16-.36.28-.73.53-1.09.79-.65.47-1.34.93-2.02,1.34-1.42.89-2.91,1.72-4.43,2.43-.38.18-.77.36-1.15.53-.16.08-.34.14-.49.22.79-.36.06-.02-.14.06-.77.32-1.56.59-2.35.87-1.58.53-3.2.97-4.83,1.31-.38.08-.75.14-1.13.22-.2.04-.42.06-.61.1-.1,0-.2.02-.28.04-.61.1-.04.1,0,0-.06.12-1.25.16-1.44.18-.55.06-1.11.1-1.66.14-2.06.14-4.11.18-6.17.1-1.03-.04-2.06-.12-3.07-.2-.47-.04-.95-.1-1.42-.14-.26-.02-.51-.06-.77-.1-.06,0-.44-.06-.06,0s-.1,0-.16-.02c-4.11-.59-8.15-1.56-12.1-2.81-2-.63-3.98-1.33-5.93-2.08-.99-.38-1.96-.77-2.93-1.19-.1-.04-.22-.08-.32-.14.02,0,.44.2.14.06-.24-.1-.49-.2-.73-.32-.51-.22-1.05-.45-1.56-.69-3.82-1.72-7.55-3.6-11.23-5.6-.93-.49-1.84-1.01-2.75-1.5-.85-.47-1.92-.51-2.77,0-1.9,1.17-3.82,2.27-5.79,3.3-.97.49-1.96.99-2.95,1.44-.51.24-1.03.47-1.54.69-.24.1-.45.2-.69.3-.44.18.04-.02.1-.04-.16.02-.38.16-.51.22-4.09,1.68-8.35,3.11-12.68,3.99-1.07.22-2.14.44-3.22.61-.51.08-1.05.18-1.58.26-.26.04-.49.08-.75.1-.12,0-.26.04-.38.06.63-.08,0,0-.12,0-2.2.28-4.41.47-6.63.57-4.41.22-8.84.1-13.21-.36-.53-.06-1.07-.12-1.58-.18-.24-.04-.59-.14-.83-.1.06,0,.57.08.1,0-.18-.02-.38-.06-.55-.08-1.09-.16-2.16-.34-3.24-.53-2.18-.4-4.35-.89-6.49-1.46-2.14-.57-4.21-1.21-6.27-1.92-1.07-.38-2.12-.77-3.16-1.17-.49-.2-.99-.4-1.48-.59-.34-.14.44.18.1.04-.14-.06-.3-.12-.44-.18-.26-.12-.51-.22-.77-.34-4.01-1.8-7.89-3.92-11.55-6.35-.93-.63-1.86-1.27-2.77-1.94-.2-.14-.4-.3-.61-.45-.12-.1-.26-.18-.38-.28-.3-.22.38.3.08.06-.47-.38-.93-.73-1.38-1.13-1.7-1.44-3.32-3.01-4.81-4.69-.36-.42-.71-.83-1.07-1.25-.18-.22-.38-.45-.55-.67-.04-.04-.24-.3-.24-.3l.18.24c-.08-.1-.16-.2-.24-.32-.67-.89-1.31-1.82-1.9-2.75s-1.13-1.88-1.62-2.87c-.24-.47-.45-.95-.67-1.42-.08-.2-.32-.45,0,.04-.06-.08-.1-.26-.14-.34-.12-.28-.22-.57-.32-.85-.36-.99-.65-1.98-.87-3.01-.12-.49-.2-.97-.28-1.46-.08-.47,0,.14.02.2,0-.12-.02-.24-.04-.36-.04-.3-.06-.57-.08-.87-.06-1.03-.06-2.08.04-3.11,0-.12.04-.24.04-.34-.04.67-.06.38-.02.2.04-.24.08-.45.12-.69.1-.53.24-1.09.4-1.62.14-.47.32-.95.49-1.42.16-.44-.04.08-.06.14.06-.1.1-.22.14-.34.12-.28.26-.55.4-.83.75-1.46.18-3.58-1.6-3.96-4.27-.93-8.54-1.94-12.68-3.36-1.03-.36-2.04-.73-3.05-1.13-.1-.04-.36-.1-.42-.18.02.02.61.26.16.06-.22-.1-.44-.2-.65-.3-.53-.24-1.07-.49-1.6-.75-1.88-.93-3.66-2.02-5.32-3.26-.14-.1-.36-.34.16.12-.08-.08-.18-.14-.28-.22-.2-.16-.4-.32-.59-.49-.42-.36-.81-.71-1.21-1.09-.73-.71-1.42-1.48-2.08-2.27-.3-.36.08.1.12.16-.06-.1-.14-.18-.2-.28-.16-.22-.3-.42-.45-.63-.32-.45-.61-.93-.89-1.4-.3-.51-.57-1.05-.83-1.58-.06-.12-.12-.24-.16-.36-.08-.18-.1-.42.04.12-.08-.32-.26-.61-.36-.93-.4-1.11-.71-2.25-.95-3.42-.06-.3-.1-.59-.16-.87-.04-.22-.2-.55,0,.04-.04-.1-.04-.3-.04-.4-.06-.59-.1-1.19-.12-1.78-.04-1.19,0-2.39.12-3.58,0-.16.04-.34.06-.49.04-.44-.12.69,0,.04.04-.26.08-.53.12-.79.12-.63.24-1.25.4-1.86.3-1.17.65-2.31,1.11-3.42.04-.12.1-.24.16-.38.16-.4-.28.61,0,0,.12-.24.22-.49.34-.73.28-.55.55-1.11.87-1.66.57-1.01,1.19-1.98,1.88-2.91.12-.16.71-.81.2-.3.18-.18.32-.4.47-.59.42-.49.83-.99,1.27-1.44.79-.85,1.6-1.66,2.47-2.43.42-.36.83-.71,1.25-1.07.12-.1.87-.73.28-.24.24-.2.51-.4.77-.57,1.88-1.36,3.88-2.57,5.97-3.6.51-.26,1.05-.51,1.58-.75.24-.1.47-.2.71-.32-.53.3-.26.12-.12.06.2-.08.4-.16.57-.24,1.21-.47,2.43-.91,3.68-1.27s2.51-.67,3.8-.93c.63-.12,1.29-.24,1.92-.34.14-.02.3-.06.44-.06-.57,0-.24.04-.08,0,.36-.04.71-.08,1.07-.12,2.61-.26,5.24-.24,7.85.06.14,0,.28.04.44.06.44.06-.67-.12.02,0,.28.04.57.08.85.14.67.12,1.33.26,2,.42,1.25.3,2.49.67,3.7,1.13.22.08.73.18.91.36-.04-.04-.55-.24-.12-.04.12.04.22.1.34.14.51.24,1.05.49,1.54.75.99.53,1.96,1.11,2.87,1.74.2.14.4.28.59.42.1.08.2.14.3.22.49.36-.36-.28-.04-.04.45.36.89.73,1.33,1.11.81.73,1.58,1.5,2.31,2.31.34.38.67.77.99,1.17.12.16.42.4-.04-.04.08.08.16.2.22.3.18.24.36.49.53.73.61.89,1.19,1.82,1.68,2.77.26.47.49.97.71,1.44.04.1.1.22.14.34-.02-.06-.24-.59-.06-.14.12.28.22.55.32.83.36,1.01.67,2.04.89,3.09.12.53.18,1.07.28,1.58,0-.06-.08-.65-.02-.18,0,.12.02.24.04.36.02.3.06.59.08.91.08,1.33.95,2.43,2.31,2.61,1.36.18,2.51-.63,2.91-1.9.18-.57.38-1.15.61-1.7.06-.16.2-.71,0-.04.04-.1.1-.24.14-.34.14-.34.3-.65.45-.99.53-1.09,1.15-2.12,1.82-3.12.18-.26.34-.49.51-.73.1-.14.63-.95.24-.34.34-.55.85-1.05,1.29-1.52.81-.89,1.68-1.74,2.59-2.51.24-.2.45-.4.69-.57l.14-.12c.22-.18.2-.16-.1.06.08-.04.2-.16.3-.22.53-.4,1.09-.77,1.64-1.13,1.05-.65,2.14-1.25,3.24-1.76l.42-.18c.42-.18-.04,0-.1.04.26-.14.57-.24.85-.34.61-.24,1.25-.44,1.9-.61.99-.28,2.02-.51,3.03-.69.47-.08.97-.12,1.42-.24-.79.18.06,0,.26-.02.32-.04.61-.06.93-.1,1.07-.1,2.16-.14,3.22-.16s2.2.02,3.28.1c.53.04,1.07.08,1.6.14.28.04.53.06.81.1.45.04-.14-.04-.16-.02.08-.06.45.06.55.08,2.2.34,4.35.83,6.47,1.52.47.16.97.34,1.44.51.26.1.49.2.75.3.14.06.32.1.44.18-.53-.3-.08-.04.04,0,.99.44,1.96.91,2.91,1.44,1.05.59,2.02,1.29,3.05,1.92.24.16.47.32.69.49.12.1.24.18.38.28.42.32-.36-.28.06.04.45.38.91.75,1.34,1.15s.83.83,1.25,1.25c.1.1.69.63.42.36-.2-.18.22.24.24.28.2.2.38.42.55.61s.36.44.53.63c.32.38-.18-.26.12.16.1.12.18.26.28.38.36.49.69,1.03,1.03,1.56.36.59,1.11.85,1.76.57.59-.26,1.07-.99.81-1.66h0l.08.08Z"/>
      <path class="uuid-84e0e1d1-a0b1-427d-808d-aa06bae864e9" d="M98.8,63.7c-5.66,13.65-7.26,28.95-7.32,43.79,0,4.71,1.56,13.73,8.27,12.74,2.65-.4,4.55-2.67,6.07-4.88,9.39-13.63,14.06-30.44,13.05-46.95,2.41,15.09,15.6,27.77,30.77,29.63,4.45.53,9.18.18,13.03-2.12,3.38-2.02,5.68-5.54,5.89-9.49.24-4.29-2.89-7.55-5.97-10.21-6.88-5.97-15.21-10.26-24.07-12.44,9.77,2.08,19.8,4.11,29.71,2.73,9.91-1.38,19.82-6.88,23.75-16.08,1.23-2.87,1.82-6.11,1.03-9.12-2-7.61-11.41-10.38-19.3-10.42-11.77-.06-23.55,3.09-33.74,9,9.32-3.36,17.44-9.87,22.76-18.21,1.62-2.55,2.99-5.97,1.25-8.46-1.6-2.33-4.96-2.47-7.77-2.14-15.21,1.86-28.6,9.32-36.21,22.61,1.94-4.88,2.63-8.09,3.48-13.27.71-4.37.99-9.08-1.01-13.05-2-3.98-6.94-6.74-11-4.94-2.2.97-3.7,2.99-4.92,5.04-4.25,7.2-6.05,15.8-5,24.11-.59-7.48-5-14.56-11.45-18.39s-14.79-4.29-21.64-1.21c-1.88.85-3.7,2-4.83,3.74-2.33,3.66-.65,8.78,2.59,11.67s7.59,4.07,11.79,5.16c-8.31-2.18-16.89-2-25.02.95-5.04,1.82-11.04,4.75-14.28,9.16-1.42,1.94-2.69,5.18-.93,7.38,2.49,3.09,9.63,1.6,12.97,1.01,7.67-1.36,15.25-3.34,22.61-5.89-8.96,2.95-18,5.91-26.15,10.68-7.81,4.57-16.08,11.47-18.77,20.39-2.22,7.38-.53,15.82,9.16,11.77,8.35-3.48,14.99-11.31,22.03-16.97,8.15-6.59,11.27-5.97,19.84-12.02-10.32,13.49-19.5,20.55-24.74,36.71-2.97,9.14,5.83,13.71,14.14,9.14,5.08-2.81,9.02-8.01,12.42-12.58,6.37-8.54,13.33-18.57,17.44-28.5l.06-.02Z"/>
      <path class="uuid-2bd4ed41-e7be-4a15-9eed-8ce1206afc15" d="M137.22,168.26c-.67,0-1.4-.04-2.06.1-.51.12-1.03.3-1.54.47-.12.04-.24.1-.36.14-.16.06-.3.12-.45.2-.18.08.16-.06.16-.06-.32.04-.69.34-.97.49-.51.32-1.01.67-1.48,1.05-1.62,1.29-2.87,3.01-3.92,4.77-1.25,2.08-2.27,4.27-3.4,6.43-1.36,2.63-2.53,5.4-4.17,7.89-.2.3-.4.57-.61.87s.1-.12-.12.14c-.14.16-.28.34-.42.49-.45.51-.95.97-1.48,1.4.24-.2,0,0-.1.08-.14.1-.28.2-.44.3-.3.18-.59.36-.89.51-.16.08-.32.16-.45.22-.32.16.24-.08-.1.04s-.63.22-.97.32c-.16.04-.32.08-.49.12-.08,0-.14.02-.22.04-.3.06.06,0,.06,0,0,.06-.93.04-.99.04-.14,0-.28,0-.42-.02-.4-.04.08,0,.08,0,0,0-.2-.04-.22-.04-.34-.06-.63-.18-.97-.28-.2-.06.12.04.12.06-.02-.04-.2-.08-.24-.12l-.36-.18c-.14-.08-.26-.16-.4-.24-.06-.04-.1-.08-.16-.12-.28-.2.18.16,0,0-.22-.18-.42-.38-.61-.57-.1-.1-.18-.2-.26-.3-.06-.06-.12-.14-.18-.2-.18-.22.06,0,.04.06.02-.12-.4-.59-.47-.71-.18-.3-.34-.59-.47-.89-.02-.04-.14-.36-.18-.38,0,0,.14.34.06.14-.04-.08-.06-.18-.1-.26-.12-.3-.22-.61-.3-.91-.18-.59-.32-1.19-.42-1.8,0-.08,0-.2-.04-.28,0,0,.04.38.02.16,0-.14-.04-.3-.04-.44-.04-.4-.06-.81-.08-1.21-.06-1.44.02-2.91.2-4.35.04-.38,0-.04,0,.02,0-.08.02-.16.04-.24.02-.18.06-.38.08-.55.06-.38.12-.75.2-1.13.14-.71.3-1.44.45-2.16,1.38-5.95,3.6-11.79,3.9-17.96.04-.73.04-1.46,0-2.2-.08-.97-.81-1.92-1.88-1.88s-1.88.83-1.88,1.88c0,1.52-.08,3.03-.26,4.55.06-.44,0,.12-.04.22-.02.2-.06.38-.08.55-.06.38-.14.75-.2,1.13-.14.75-.32,1.5-.47,2.23-.71,3.03-1.64,5.99-2.39,9-1.44,5.74-2.49,12.44.36,17.94,1.4,2.69,3.84,4.63,6.86,5s6.07-1.07,8.29-3.05c2.33-2.08,3.8-4.94,5.14-7.71,1.21-2.49,2.47-4.98,3.74-7.46.51-1.03,1.05-2.04,1.66-3.03.28-.44.55-.87.85-1.31.06-.08.12-.18.2-.26.04-.04.1-.12.14-.18,0,0-.24.28-.1.14.18-.2.34-.42.51-.61.32-.36.67-.71,1.03-1.03.08-.08.16-.14.24-.2.04-.04.38-.28.16-.14s.1-.08.16-.12c.12-.08.24-.16.36-.24.44-.28.87-.53,1.33-.79.22-.12.44-.24.67-.36.12-.06.26-.12.38-.18.08-.04.14-.06.22-.1-.12.06-.2.08-.02,0,.1-.04.2-.08.3-.12.06-.02.71-.44.44-.28-.16.08.22-.14.26-.16.26-.16.53-.26.81-.38.45-.2.65-.85.53-1.31-.14-.47-.61-.85-1.11-.85h0l-.06.08Z"/>
      <path class="uuid-2bd4ed41-e7be-4a15-9eed-8ce1206afc15" d="M93.65,172.34c-.28.32-.57.61-.75.99s-.38.77-.55,1.17c-.38.85-.71,1.7-1.03,2.57-.57,1.6-1.03,3.2-1.34,4.88-.65,3.46-.95,6.98-.73,10.5.4,6.45,2.55,12.74,6.53,17.84,3.05,3.94,7.3,6.88,12.18,7.93,4.11.89,8.62.85,12.64-.49,2.33-.77,4.47-1.94,6.37-3.52,1.9-1.58,3.72-3.82,4.51-6.25.2-.61.36-1.23.47-1.86.16-.85-.16-1.68-.99-2.04-.77-.34-1.72-.04-2.16.71-.59,1.03-1.25,2.06-1.94,3.05-.16.24-.32.47-.47.71-.08.1-.16.22-.22.32-.28.4.22-.26,0,.02-.36.44-.73.85-1.13,1.27-.38.38-.75.73-1.17,1.07-.06.06-.4.32-.12.1s-.04.04-.12.08c-.22.16-.45.32-.67.47-.44.28-.87.53-1.31.77-.22.12-.45.24-.67.34-.1.06-.22.1-.32.14-.06.02-.1.04-.16.08-.24.12.45-.18.2-.08-.95.38-1.9.69-2.89.93-.47.12-.97.22-1.44.3-.22.04-.45.06-.67.1-.04,0,.53-.06.3-.04-.06,0-.12,0-.16.02-.14,0-.3.04-.45.04-.95.1-1.9.14-2.85.12-.45,0-.93-.04-1.38-.06-.22,0-.45-.04-.67-.06-.1,0-.2-.02-.3-.04-.44-.04.44.06.1,0-.85-.14-1.68-.28-2.51-.51-.38-.1-.75-.22-1.11-.34-.16-.06-.32-.12-.47-.18-.1-.04-.18-.06-.28-.1-.04,0-.1-.04-.14-.06-.26-.1.34.16.08.04-1.17-.53-2.25-1.15-3.3-1.9-.08-.06-.4-.24-.42-.32,0,0,.3.24.12.08-.06-.04-.12-.1-.18-.14-.26-.2-.49-.42-.75-.63-.51-.45-1.01-.93-1.46-1.42s-.89-.99-1.31-1.52c-.24-.3.16.2-.08-.1-.1-.12-.2-.26-.28-.38-.22-.3-.44-.59-.63-.91-.77-1.17-1.44-2.37-2.04-3.64-.06-.14-.14-.3-.2-.44-.04-.1-.08-.2-.14-.3,0-.02-.12-.28-.04-.08s-.02-.06-.04-.08c-.04-.08-.06-.16-.1-.24-.08-.18-.14-.36-.22-.53-.26-.67-.47-1.34-.69-2.04-.45-1.5-.79-3.03-1.01-4.57,0-.1-.02-.18-.04-.28,0,.04.04.24,0,.02-.02-.18-.04-.38-.06-.55-.04-.44-.1-.87-.14-1.31-.06-.81-.12-1.62-.14-2.41-.04-1.62.02-3.24.18-4.87s.42-3.01.73-4.67.69-3.16,1.11-4.73c.1-.36.2-.71.3-1.07.14-.45.14-.87.18-1.34.04-.75-1.01-1.19-1.5-.63h0l-.06.06Z"/>
      <path class="uuid-2bd4ed41-e7be-4a15-9eed-8ce1206afc15" d="M120.39,197.89c.45,1.23,1.36,2.31,2.27,3.24.91.93,1.92,1.78,2.99,2.53,2.08,1.44,4.35,2.59,6.74,3.42,1.23.44,2.59.89,3.92.91.97,0,1.88-.32,2.59-.97.53-.47.87-1.13,1.19-1.74,1.33-2.65,2.63-5.3,3.96-7.93.75-1.5,1.5-3.01,2.25-4.51.38-.75.75-1.48,1.09-2.23.22-.47.47-.95.63-1.44s.16-.97.18-1.44-.32-.93-.75-1.11c-.47-.2-.93-.06-1.33.26-.26.2-.51.4-.73.65-.3.38-.53.77-.77,1.19-.36.61-.67,1.23-.99,1.86-.65,1.27-1.31,2.53-1.96,3.8-1.29,2.49-2.57,4.98-3.86,7.48-.36.69-.71,1.38-1.07,2.08-.08.14-.14.26-.22.38-.04.06-.18.24,0,0,.2-.24,0,0-.04.04-.02.02-.12.1-.14.14.24-.18.3-.22.18-.14-.04.02-.08.06-.12.08-.02-.02.47-.14.16-.06-.1.02-.2.06-.3.06l.47-.06c-.28.04-.55.02-.83,0l.49.06c-1.09-.16-2.18-.47-3.22-.81-.51-.18-1.05-.36-1.56-.55-.12-.06-.26-.1-.38-.16-.28-.12.1.04.14.06-.06-.02-.12-.06-.2-.08-.28-.12-.53-.24-.79-.36-.99-.47-1.96-1.01-2.89-1.6-.45-.3-.91-.61-1.36-.91-.22-.14-.42-.3-.63-.44-.12-.08-.22-.16-.34-.24-.06-.04-.12-.08-.16-.12s-.28-.22-.1-.06c.18.14,0,0-.06-.04-.06-.06-.14-.1-.2-.16-.12-.1-.24-.2-.36-.3-.3-.26-.61-.49-.93-.73-.12-.08-.24-.18-.36-.28.24.18-.12-.1-.18-.16-.3-.24-.59-.47-.93-.67s-.79-.18-1.11.08c-.3.24-.49.67-.36,1.05h0l-.06-.06Z"/>
      <path class="uuid-2bd4ed41-e7be-4a15-9eed-8ce1206afc15" d="M137.58,210.84c-.87,2-1.74,3.99-2.43,6.07s-1.29,4.07-1.76,6.17c-.95,4.27-1.58,8.64-1.96,12.99-.73,8.62-.34,17.34.51,25.95.85,8.6,2.29,17.44,3.84,26.38,1.54,8.94,3.24,18.67,4.87,28,1.62,9.33,3.14,18.89,5.1,28.24.24,1.17.49,2.33.73,3.48.2.95,1.33,1.5,2.22,1.25,1.03-.28,1.38-1.25,1.25-2.22-.67-4.73-1.34-9.45-2.18-14.16-.83-4.71-1.64-9.3-2.47-13.96-1.64-9.3-3.28-18.61-4.92-27.91-.77-4.35-1.54-8.7-2.25-13.05-.36-2.12-.67-4.25-.99-6.39-.16-1.09-.32-2.18-.47-3.24-.16-1.07-.26-1.8-.4-2.95-1.09-8.58-1.74-17.25-1.44-25.89.14-4.15.45-8.35,1.09-12.42.63-4.07,1.64-8.33,2.67-12.44.26-1.05.55-2.08.89-3.11.36-1.11-1.44-1.9-1.92-.81h.04Z"/>
      <path class="uuid-2bd4ed41-e7be-4a15-9eed-8ce1206afc15" d="M169.66,242.47c-.59,3.26-1.31,6.51-1.76,9.81s-.81,6.7-1.03,10.09c-.44,6.53-.36,13.09.14,19.62.99,13.05,3.92,25.87,9.24,37.83,1.46,3.3,3.12,6.55,4.96,9.67.93,1.58,1.94,3.11,3.01,4.61.55.79,1.19,1.56,1.8,2.31s1.34,1.34,2,2.04c1.07,1.13,2.95-.32,2.16-1.66-.44-.71-.71-1.46-1.15-2.18s-.85-1.4-1.29-2.1c-.87-1.38-1.74-2.75-2.59-4.15-1.64-2.69-3.16-5.48-4.53-8.33-2.67-5.54-4.81-11.37-6.47-17.54-.83-3.11-1.52-6.23-2.12-9.39-.59-3.16-1.05-6.09-1.38-9.12-.73-6.45-.93-12.89-.91-19.38,0-3.64.16-7.28.32-10.9.16-3.62.3-7.42.71-11.1.08-.63-1.01-.77-1.11-.16h0v.02Z"/>
      <path class="uuid-2bd4ed41-e7be-4a15-9eed-8ce1206afc15" d="M145.27,351.44c1.42-.28,2.91-.47,4.35-.44,1.58.04,3.14.2,4.71.3,2.95.18,5.87.18,8.82-.22,5.89-.77,11.73-2.97,16.71-6.19,1.42-.91,2.77-1.92,4.07-3.01.63-.51,1.31-1.05,1.86-1.64.59-.65,1.34-1.46,1.48-2.35s-.49-1.56-1.4-1.4c-.75.14-1.33.65-1.92,1.11-.65.47-1.23,1.03-1.84,1.54-.28.24-.55.45-.83.67-.06.06-.14.1-.2.16.02-.02.16-.12,0,0s-.32.24-.45.36c-.57.44-1.17.83-1.76,1.23-1.21.79-2.43,1.52-3.7,2.2-.63.34-1.29.65-1.94.95-.32.16-.65.3-.99.44-.18.08,0,0,.02,0-.08.04-.16.06-.24.1-.18.08-.36.14-.53.22-2.67,1.05-5.46,1.82-8.29,2.27-.36.06-.71.12-1.07.16-.08,0-.16.02-.24.04,0,0-.28.04-.1,0s-.1,0-.1,0c-.12,0-.22.02-.34.04-.71.08-1.42.14-2.16.2-1.46.1-2.95.08-4.41.02-1.8-.06-3.64-.08-5.42.24-.83.14-1.64.34-2.41.63-.87.32-1.56.75-2.23,1.38-.45.42.04,1.07.57.97h0l-.04.04Z"/>
      <g>
        <path class="uuid-2bd4ed41-e7be-4a15-9eed-8ce1206afc15" d="M151.07,350.89c-6.35,4.73-13.69,8.11-21.42,9.85,11.21,4.35,24.05,2.67,35.1-2.06,3.56-1.52,7.22-3.58,8.9-7.06.34,4.94.4,9.91.16,14.85,1.19-1.31,3.78-.4,4.79-1.84.3-.42.38-.95.44-1.44.77-6.51.51-13.15-.77-19.58"/>
        <path class="uuid-2bd4ed41-e7be-4a15-9eed-8ce1206afc15" d="M150.47,349.88c-3.46,1.84-6.8,3.88-10.38,5.52-3.58,1.64-7.18,2.77-10.94,3.6-.77.18-1.33.99-1.33,1.76,0,.85.57,1.46,1.33,1.76,6.21,2.43,12.99,3.09,19.6,2.35s13.17-2.55,19.09-5.54c3.01-1.52,5.89-3.66,7.44-6.74l-3.5-.95c.18,2.47.36,4.94.4,7.42.04,2.47,0,4.94-.12,7.44-.06,1.52,1.96,2.29,2.99,1.25.02-.02.2-.18.02-.06-.18.12,0,0,.04-.02.32-.08-.24.04.08-.06s.65-.16,1.01-.22c-.32.06,0,0,.14,0,.26-.04.51-.06.75-.1.32-.04.61-.1.91-.2.87-.28,1.64-.81,2.12-1.6.55-.93.59-2.04.71-3.07.44-4.01.49-8.05.16-12.08-.2-2.41-.53-4.81-.99-7.18-.18-.97-1.34-1.52-2.25-1.29-1.01.28-1.46,1.29-1.29,2.25.95,4.73,1.33,9.53,1.15,14.38-.04,1.19-.12,2.37-.24,3.54-.04.32-.06.63-.1.95-.04.26-.04.32,0,.16,0,.12-.04.26-.08.38-.06.2-.08.24-.02.12-.14.2-.14.22,0,.02-.14.14-.14.12.04,0-.08.04-.16.1-.24.14.38-.2-.14,0-.24.04-.14.04-.28.06-.44.08q-.2.02,0,0c-.1,0-.2.02-.3.04-.3.04-.61.08-.91.12-.97.16-1.86.51-2.57,1.23l2.99,1.25c.24-4.92.3-9.93-.04-14.85-.06-.79-.53-1.62-1.38-1.8-.77-.18-1.74.1-2.12.87-.16.34-.34.65-.53.97-.06.1-.14.2-.2.32,0,0-.36.49-.14.22-.42.53-.89,1.01-1.4,1.46l-.42.36c-.28.24-.12.1-.06.06-.3.24-.61.45-.93.65-.57.38-1.19.73-1.8,1.07-1.27.67-2.47,1.21-3.7,1.7-1.44.57-2.91,1.11-4.39,1.56-6.05,1.88-12.06,2.75-18.39,2.22-.44-.04-.85-.08-1.29-.14-.14,0-.28-.04-.42-.06-.24-.04-.28-.04-.14,0-.14,0-.28-.04-.42-.06-.85-.12-1.68-.28-2.53-.45-1.74-.38-3.46-.89-5.14-1.52v3.5c4-.95,7.89-2.31,11.61-4.05,3.72-1.74,7.28-3.84,10.15-6.72.95-.95-.26-2.45-1.42-1.84h0l.08-.12Z"/>
      </g>
      <path class="uuid-2bd4ed41-e7be-4a15-9eed-8ce1206afc15" d="M167.74,255.88c-.12,1.62.24,3.26.45,4.87s.57,3.28.87,4.9c.61,3.22,1.31,6.45,2.06,9.63,1.52,6.39,3.26,12.7,5.26,18.95,4.01,12.6,9.1,24.92,15.51,36.51,1.74,3.16,3.56,6.29,5.62,9.26,1.03,1.48,2.08,2.95,3.14,4.37,1.15,1.52,2.27,3.05,3.66,4.37.95.91,2.43-.24,1.8-1.4-1.52-2.83-3.46-5.44-5.14-8.19s-3.32-5.44-4.88-8.21c-3.22-5.66-6.13-11.49-8.72-17.46-5.16-11.83-9.28-24.44-12.48-37.06-.89-3.52-1.74-7.06-2.55-10.6-.4-1.72-.77-3.44-1.15-5.18s-.75-3.64-1.5-5.32c-.47-1.05-1.9-.4-1.98.53h0l.04.04Z"/>
      <path class="uuid-2bd4ed41-e7be-4a15-9eed-8ce1206afc15" d="M175.31,210.41c1.34.83,2.67,1.8,3.8,2.79.63.57,1.23,1.21,1.8,1.84.26.3.51.59.77.89.08.1.16.2.24.28-.02-.04-.14-.18,0,0,.14.2.3.4.44.59.99,1.42,1.88,2.91,2.67,4.45.4.77.75,1.56,1.09,2.35.1.22,0-.02-.02-.06.06.14.12.28.18.42.1.24.2.49.3.73.2.49.38.99.57,1.48,2.99,7.95,4.77,16.3,6.68,24.54,1.92,8.25,4.07,16.06,7.48,23.67,3.07,6.9,7,13.37,11.61,19.34s9.99,11.61,16.2,16.08c.75.55,1.52,1.05,2.33,1.5,1.56.87,3.24-1.21,1.94-2.51s-2.79-2.53-4.17-3.82c-1.38-1.29-2.73-2.53-4.07-3.82-2.71-2.61-5.26-5.38-7.63-8.29-.3-.36-.59-.73-.87-1.09-.14-.18-.3-.36-.44-.55-.06-.08-.12-.16-.18-.24.18.24-.02-.04-.1-.14-.57-.73-1.13-1.48-1.66-2.25-1.11-1.54-2.16-3.12-3.16-4.73-2-3.18-3.82-6.49-5.42-9.89-.4-.85-.77-1.7-1.15-2.55-.1-.22-.18-.44-.28-.63.14.32-.1-.26-.14-.34-.18-.44-.36-.87-.53-1.29-.73-1.84-1.38-3.7-2-5.58-1.33-4.05-2.37-8.21-3.36-12.34-2-8.33-3.68-16.77-6.65-24.8-1.33-3.58-2.81-7.26-5-10.4-2-2.89-4.81-5.77-8.37-6.61-.85-.2-1.64-.28-2.51-.22-.61.04-.87.83-.32,1.17h-.06Z"/>
      <path class="uuid-2bd4ed41-e7be-4a15-9eed-8ce1206afc15" d="M202.67,342.8c-.34.93.59,1.9,1.34,2.29.99.51,2.02.36,3.01-.08,1.31-.55,2.49-1.42,3.66-2.23,2.45-1.72,4.85-3.56,7.12-5.5,4.49-3.84,8.58-8.13,12.2-12.82,1.01-1.31,1.96-2.61,2.89-3.98.45-.65.93-1.31,1.33-2,.26-.45.51-.91.71-1.4.16-.38.24-.77.32-1.17.12-.55-.08-1.23-.61-1.5s-1.13-.18-1.62.22c-.26.2-.53.4-.75.63-.32.34-.57.71-.85,1.09-.42.55-.79,1.15-1.17,1.72-.77,1.15-1.58,2.27-2.41,3.38-.2.26-.44.53-.61.81.02-.04.24-.32.04-.06-.06.06-.1.14-.16.2-.12.16-.24.3-.36.45-.44.53-.87,1.09-1.31,1.62-.87,1.07-1.78,2.12-2.71,3.14-1.86,2.06-3.82,4.03-5.85,5.89-1.03.93-2.06,1.84-3.12,2.73-.51.44-1.03.85-1.56,1.27-.26.22-.53.42-.79.61.34-.26-.08.06-.16.12-.16.12-.34.26-.49.38-1.23.93-2.49,1.8-3.74,2.69-.32.24-.65.47-.99.69-.16.1-.32.2-.49.3-.04.02-.3.12-.1.06.2-.06-.14.02-.18.04-.26.08-.04,0,.04,0-.44.06-.53.08-.3.04.12,0,.14,0,.06,0h-.04q-.14,0,0,0t0,0h-.1c-.28-.08.08,0,.06,0-.1.06-.26-.3-.04,0-.18-.24-.47-.4-.75-.47-.67-.18-1.25.22-1.46.83h-.04Z"/>
      <g>
        <path class="uuid-2bd4ed41-e7be-4a15-9eed-8ce1206afc15" d="M205.91,342.72c-3.62,6.7-8.35,12.82-13.9,18.02.08,1.25,1.7,1.62,2.95,1.56,6.74-.34,13.01-3.94,17.82-8.66s8.37-10.6,11.73-16.45c3.26,2.55,6.27,5.44,8.92,8.62.18-2.27,4.39-3.12,3.74-5.3-.14-.45-.49-.81-.83-1.15-3.68-3.68-7.34-7.38-11.02-11.06"/>
        <path class="uuid-2bd4ed41-e7be-4a15-9eed-8ce1206afc15" d="M204.92,342.13c-1.42,1.9-2.65,3.94-4,5.87s-2.71,3.68-4.21,5.44-3.12,3.46-4.81,5.08c-.44.42-1.05.83-1.34,1.34-.42.71-.22,1.68.2,2.35.55.91,1.6,1.46,2.63,1.66,1.03.2,2.14.14,3.22,0,1.19-.14,2.35-.36,3.52-.65,2.22-.59,4.35-1.48,6.37-2.59,4.05-2.23,7.54-5.36,10.48-8.9,1.76-2.12,3.36-4.37,4.87-6.68s2.75-4.69,4.09-7.04l-2.57.34c3.28,2.55,6.27,5.42,8.92,8.62.42.49,1.23.57,1.78.34.63-.28.93-.81.99-1.48-.04.32.04.16.04-.02,0-.14-.04.12-.06.14.04-.06.06-.14.1-.18.1-.16.16-.2,0-.02.1-.12.2-.22.3-.34.2-.2.4-.38.61-.53.04-.04.4-.32.22-.16-.16.14.16-.12.22-.16,1.07-.81,2.18-1.72,2.35-3.14.28-2.04-1.54-3.38-2.85-4.65-1.5-1.48-2.99-2.99-4.47-4.51-1.66-1.7-3.3-3.42-4.96-5.12-.63-.65-1.76-.63-2.39,0s-.65,1.74,0,2.39c2.87,2.81,5.77,5.58,8.58,8.44.69.71,1.4,1.42,2.1,2.16.18.18.36.36.51.53.04.04.28.32.22.24.04.06.16.18.1.24-.04.06,0-.08-.02-.18v.18s.08-.42,0-.16c0,.06-.08.22,0-.02.1-.26-.04.04-.08.1-.18.32.18-.16,0,.02-.1.08-.18.18-.26.26-.18.16-.36.32-.55.47-.06.04-.38.3-.2.16s0,0-.02,0c-.14.12-.28.22-.42.34-1.21.93-2.12,1.98-2.27,3.54l2.77-1.15c-2.67-3.18-5.66-6.07-8.9-8.64-.81-.63-2-.67-2.57.34-1.5,2.61-3.14,5.16-4.81,7.67-1.66,2.51-3.26,4.63-5.3,6.82-.99,1.05-2.02,2.06-3.11,3.01-.49.42-.99.83-1.5,1.25-.28.22.34-.24-.14.12-.16.12-.3.22-.45.34-.3.22-.59.44-.91.63-1.13.77-2.29,1.46-3.5,2.06-.34.16-.65.32-.99.47-.12.06-.22.1-.34.16-.55.24.3-.12-.26.1-.69.26-1.36.51-2.08.73s-1.4.4-2.12.53c-.87.18-1.21.22-1.98.3-.36.04-.69.06-1.05.06-.12,0-.24-.02-.36-.02-.14,0-.1,0,.1,0-.1,0-.18-.04-.28-.06-.14-.04-.26-.08-.4-.12.36.1.04,0-.06-.06-.38-.2.32.14-.04-.04.14.2.16.22.06.06.08.12.12.24.1.38l-.49,1.21c2.87-2.73,5.48-5.68,7.85-8.84,2.37-3.16,4.65-6.41,5.97-10.07.2-.53-.18-1.17-.67-1.36-.57-.24-1.09,0-1.44.47h0l-.06-.06Z"/>
      </g>
      <path class="uuid-2bd4ed41-e7be-4a15-9eed-8ce1206afc15" d="M147.13,220.6c.57,0,1.15.1,1.74.06.69-.06,1.38-.12,2.08-.2,1.23-.16,2.43-.34,3.64-.59,2.35-.49,4.67-1.07,6.98-1.72,2.31-.65,4.59-1.42,6.82-2.25,2.04-.75,4.09-1.52,6.01-2.57,2.04-1.13,4.15-2.71,5.22-4.85.42-.85.26-2-.65-2.47s-1.92-.2-2.47.65c-.14.2-.28.38-.42.57-.06.1-.14.2-.2.28-.24.34.28-.32,0,0-.3.36-.61.69-.95,1.01-.18.16-.34.32-.51.45l-.1.08c-.16.12-.12.1.1-.08-.06,0-.22.16-.28.22-.38.28-.77.53-1.19.77-.81.49-1.68.91-2.53,1.31-.2.08-.44.26-.65.28l.22-.1s-.14.06-.22.1c-.12.04-.22.1-.34.14-.53.22-1.05.42-1.58.63-4.37,1.7-8.86,3.16-13.39,4.39-1.27.34-2.53.71-3.82,1.07-.61.18-1.23.36-1.82.53-.67.2-1.27.51-1.92.75-.81.3-.73,1.56.22,1.56h0v-.02Z"/>
      <path class="uuid-2bd4ed41-e7be-4a15-9eed-8ce1206afc15" d="M118.34,75.15c.24,2.59.3,5.24.32,7.83s-.04,5.2-.24,7.79c-.42,5.16-1.33,10.26-2.41,15.41-2.22,10.46-4.87,20.85-7.73,31.17-1.62,5.83-3.34,11.63-5.14,17.38-.32,1.03.38,2.29,1.44,2.53,1.13.26,2.2-.34,2.53-1.44,3.24-10.3,6.17-20.71,8.74-31.19,1.31-5.28,2.53-10.56,3.66-15.88,1.13-5.32,2.12-10.66,2.55-16.08.24-2.93.38-5.93.12-8.88-.26-2.95-.89-6.01-1.92-8.92-.34-.95-2-.91-1.9.26h0l-.02.02Z"/>
      <path class="uuid-2bd4ed41-e7be-4a15-9eed-8ce1206afc15" d="M91.93,206.59c-.95,1.66-1.56,3.44-2.23,5.22-.63,1.68-1.19,3.38-1.78,5.08-1.21,3.46-2.41,6.92-3.66,10.36-2.49,6.9-5.16,13.75-7.95,20.53s-5.74,13.31-8.98,19.8c-1.48,2.97-3.01,5.95-4.77,8.76-.44.71-.89,1.4-1.36,2.1-.2.28-.4.57-.61.85-.12.18-.26.34-.38.51-.08.12-.16.22-.26.34.14-.2.14-.18-.02.04-1.01,1.27-2.08,2.47-3.26,3.6-.63.61-1.31,1.19-2,1.76-.51.42.38-.28-.16.12-.22.16-.44.32-.63.47-.38.28-.77.53-1.17.79-.73.47-1.5.91-2.27,1.31-.36.18-.73.36-1.11.53-.18.08-.38.16-.55.24.51-.22-.3.1-.38.14-1.68.63-3.38,1.09-5.14,1.38-.67.12.49-.04-.18.02-.28.02-.55.06-.83.1l-.63.08c.28-.04.3-.04,0,0-.2,0-.42.04-.61.06-.97.08-1.94.1-2.93.16s-1.8.69-1.94,1.72.47,1.88,1.42,2.18c3.42,1.07,7.32.49,10.66-.57,3.34-1.07,6.51-2.83,9.3-5.02,5.38-4.21,9.02-10.21,12.06-16.22,6.8-13.41,12.36-27.43,17.19-41.67,1.34-3.98,2.65-7.97,3.9-12,.61-2,1.29-4.01,1.82-6.03.53-2.02,1.11-4.07,1.31-6.21.1-1.01-1.4-1.33-1.86-.49h0v-.02Z"/>
      <path class="uuid-2bd4ed41-e7be-4a15-9eed-8ce1206afc15" d="M62.82,283.94c1.46-2.37,2.87-4.79,4.07-7.3,1.21-2.51,2.35-5.12,3.34-7.77,1.96-5.16,3.52-10.44,4.73-15.82,2.49-11.06,3.34-22.53,3.01-33.84-.34-11.31-1.94-23.24-4.47-34.59-2.53-11.35-6.11-22.57-10.48-33.38-4.37-10.82-9.49-22.15-17.4-31.17-.97-1.11-2-2.2-3.07-3.22-1.36-1.34-3.96-.42-3.9,1.62.34,10.48,1.7,20.92,3.62,31.23s4.35,20.31,6.94,30.36c2.59,10.05,5.34,20.21,7.81,30.36,2.47,10.15,4.63,20.17,6.09,30.4.04.3.08.57.12.87.02.18.04.36.08.53.06.36-.04-.3,0,.08.1.67.18,1.36.26,2.06.16,1.27.3,2.51.44,3.78.26,2.55.47,5.1.63,7.67.3,5.08.4,10.19.3,15.29-.02,1.27-.04,2.55-.14,3.8-.08,1.01.93,1.96,1.92,1.92,1.11-.04,1.84-.85,1.92-1.92.18-2.57.4-5.14.49-7.71s.06-5.12-.04-7.69c-.18-5.12-.61-10.24-1.25-15.35-1.27-10.32-3.28-20.55-5.64-30.69s-5.06-20.27-7.67-30.38c-2.61-10.11-5.14-20.23-7.16-30.46-1.01-5.1-1.9-10.22-2.59-15.37,0-.08-.06-.44,0-.04,0-.14-.04-.3-.06-.44-.04-.3-.08-.57-.12-.87-.08-.69-.18-1.36-.26-2.06-.14-1.27-.28-2.53-.42-3.8-.26-2.57-.45-5.14-.59-7.73-.06-1.27-.12-2.55-.16-3.82l-3.9,1.62c1.09,1.07,2.14,2.16,3.12,3.3.47.53.93,1.09,1.38,1.64.22.28.45.55.67.83.04.06.26.34.04.04.14.18.26.34.4.51,1.76,2.33,3.36,4.81,4.85,7.34,2.91,4.98,5.34,10.22,7.61,15.53.12.3.26.57.38.87.04.1.22.51.06.14.06.16.14.32.2.49.28.67.57,1.36.85,2.04.55,1.36,1.11,2.75,1.62,4.11,1.03,2.69,2.02,5.42,2.95,8.15,1.86,5.46,3.48,11.02,4.88,16.61,1.4,5.6,2.55,11.19,3.44,16.87.1.69.22,1.38.32,2.06.06.34.1.69.14,1.03,0,.14.04.28.06.42,0,.14.04.28.06.42-.04-.24-.02-.22,0,.04.18,1.38.34,2.75.49,4.13.3,2.81.53,5.64.71,8.46.32,5.58.38,11.19.12,16.77-.14,2.79-.34,5.6-.63,8.37-.06.63-.14,1.27-.22,1.9-.04.34-.08.67-.12.99-.02.2-.06.4-.08.59.04-.36-.02.18-.04.26-.2,1.36-.4,2.71-.63,4.07-.93,5.42-2.08,10.78-3.66,16.04s-3.48,10.19-5.58,15.13c-.51,1.23-1.07,2.45-1.64,3.66s1.07,2.18,1.78,1.05h0v-.02Z"/>
      <path class="uuid-2bd4ed41-e7be-4a15-9eed-8ce1206afc15" d="M153.44,118.7c-2.41.65-4.59,1.88-6.43,3.58-1.84,1.7-3.38,3.7-4.73,5.79-2.93,4.61-4.65,9.83-6.72,14.83-1.05,2.53-2.23,5.02-3.68,7.36-1.44,2.33-3.01,4.57-3.56,7.24-.55,2.67,0,5.2,1.48,7.36,1.42,2.06,3.36,3.66,5.42,5.04,2.51,1.7,5.3,3.44,8.33,3.94,2.81.47,5.97-.1,7.97-2.29l-2.41-.32c1.84,2.89,4.35,5.3,7.32,7,1.46.83,3.07,1.5,4.69,1.96,1.8.51,3.82.87,5.66.38.95-.26,1.8-.81,2.41-1.58.65-.81.87-1.66.91-2.67l-1.6.67c.69.59,1.46,1.29,2.27,1.72.85.47,1.74.85,2.67,1.15,1.82.59,3.76.77,5.68.55,3.76-.44,7.22-2.35,9.55-5.34.63-.81,1.23-1.68,1.68-2.61.26-.51.49-1.07.65-1.62s.14-1.15.14-1.7c0-1.15-1.7-1.7-2.25-.61-.36.71-.71,1.44-1.01,2.08-.34.71-.69,1.4-1.13,2.08-.77,1.17-1.84,2.27-3.03,3.09-2.63,1.82-5.83,2.41-8.96,1.82-1.78-.34-3.64-1.01-5.12-2.1-.59-.44-1.42.16-1.42.81s-.71,1.27-1.25,1.52c-.81.38-1.74.4-2.61.28-1.7-.22-3.44-.79-4.98-1.54-3.14-1.54-5.81-3.92-7.61-6.9-.49-.83-1.72-1.05-2.41-.32-1.33,1.38-3.36,1.8-5.16,1.48-2.47-.44-4.65-1.8-6.72-3.14-1.78-1.15-3.52-2.41-4.85-4.13-1.15-1.5-1.78-3.34-1.36-5.28.49-2.33,1.92-4.33,3.14-6.33,1.4-2.25,2.55-4.65,3.6-7.08,2-4.69,3.62-9.53,6.07-14.02,2.45-4.49,5.72-8.15,10.03-10.66.83-.47.28-1.78-.65-1.54h0v.08Z"/>
      <path class="uuid-2bd4ed41-e7be-4a15-9eed-8ce1206afc15" d="M142.29,119.1c3.05-1.07,6.23-1.76,9.39-2.02,1.44-.12,2.89-.14,4.33-.06.65.04,1.31.08,1.96.14.34.04.65.06.99.1.38.04.14,0,.06,0,.24.04.47.06.69.1,2.33.38,4.65,1.01,6.84,1.88.22.08.45.18.67.28-.44-.18.26.12.34.16.47.22.93.44,1.4.67.77.4,1.52.81,2.27,1.27.63.38,1.23.79,1.82,1.21.1.08.42.3.4.3.1.08.51.42.71.59.53.47,1.05.97,1.52,1.48.99,1.07,1.6,1.88,2.39,3.16.75,1.21,1.42,2.49,1.98,3.8-.12-.3.12.3.12.28.04.12.1.24.14.36.12.34.26.67.38,1.01.24.71.45,1.42.65,2.14.38,1.42.67,2.87.97,4.31.57,2.83,1.11,5.72,2.2,8.41.65,1.6,1.42,3.09,2.45,4.47,1.13,1.46,2.43,2.67,3.78,3.94,1.21,1.15,2.29,2.23,2.99,3.76.61,1.33.65,2.81.47,4.29-.12.93,1.29,1.46,1.88.77,2.25-2.65.85-6.59-.99-9.1s-4.49-4.53-6.03-7.16c-.81-1.36-1.19-2.39-1.66-3.9s-.79-2.97-1.09-4.47c-.61-2.97-1.13-5.95-2.14-8.82-1.92-5.42-5.2-10.19-10.03-13.37-3.56-2.35-7.65-4.03-11.85-4.9-3.2-.67-6.43-.87-9.69-.53-3.94.44-7.63,1.6-11.19,3.34-1.17.57-.36,2.55.89,2.12h0l-.02.02Z"/>
      <path class="uuid-2bd4ed41-e7be-4a15-9eed-8ce1206afc15" d="M164.48,124.38c.34.08.65.2.97.3.08.02.14.06.22.08.02,0,.22.1.12.04.16.08.32.14.49.22.59.3,1.17.65,1.72,1.07.04.02.08.06.1.08,0,0-.12-.1-.04-.04.06.04.12.1.18.14l.42.36c.26.22.51.45.75.69.49.47.95.99,1.38,1.52.02.02.04.06.06.08.08.1-.12-.16-.04-.04.04.06.1.12.14.2.1.14.22.3.32.45.2.28.38.57.55.87.38.63.71,1.27,1.01,1.94.04.08.08.18.12.26.08.18,0,0,0-.04.02.04.04.1.06.16.08.18.16.38.22.55.14.38.28.75.4,1.15.26.77.45,1.54.65,2.33.22.87.42,1.76.59,2.65.08.45.18.91.24,1.36s.26.89.38,1.33c.16.51.65.85,1.19.77s.95-.51.93-1.07c0-.49,0-.99-.08-1.48-.06-.42-.16-.83-.24-1.25-.16-.83-.34-1.64-.55-2.45-.42-1.68-1.01-3.3-1.74-4.87-1.27-2.67-3.16-5.24-5.7-6.84-1.36-.85-2.89-1.46-4.47-1.7-.34-.04-.65.08-.75.44-.08.32.1.67.44.75h-.02Z"/>
      <path class="uuid-2bd4ed41-e7be-4a15-9eed-8ce1206afc15" d="M167.4,132.9s.06.16.1.24c.06.12,0,.04,0,0,0,.04.04.08.04.12.08.18.14.36.22.53.14.34.26.67.38,1.03.24.69.47,1.38.67,2.08s.38,1.4.57,2.12.36,1.4.51,2.12c.18.81.32,1.64.42,2.47l-.04-.36c.08.53.16,1.05.22,1.58l-.04-.36c.06.51.08,1.05.2,1.54.1.4.18.81.26,1.21.06.26.32.57.53.71s.49.18.75.14c.59-.08.99-.57,1.03-1.17.04-.49.1-1.01.04-1.48-.06-.59-.14-1.19-.24-1.78-.14-.97-.38-1.92-.63-2.87s-.55-1.88-.89-2.81c-.36-.99-.83-1.94-1.31-2.87-.51-.99-1.07-1.94-1.66-2.87-.2-.3-.59-.44-.91-.24-.34.22-.4.57-.24.91h.02Z"/>
      <path class="uuid-2bd4ed41-e7be-4a15-9eed-8ce1206afc15" d="M93.81,176.25c.45-.93.93-1.84,1.33-2.79.22-.53.28-.67.47-1.15s.4-.91.61-1.36c.14-.28.26-.57.38-.85,0,0,.18-.44.06-.16.04-.1.1-.22.14-.32.2-.44.38-.89.57-1.33.42-.91.85-1.82,1.31-2.73.36-.69.24-1.72-.55-2.1-.42-.2-.79-.44-1.17-.69-.24-.16.2.18,0,0-.08-.06-.16-.14-.24-.2-.16-.16-.32-.32-.47-.47-.08-.08-.14-.16-.2-.24-.04-.06-.08-.1-.14-.16-.12-.12.08.12.08.12-.12-.2-.26-.36-.4-.55-.24-.38-.45-.79-.65-1.21-.08-.16.06.14.06.14,0-.04-.04-.1-.06-.14-.04-.1-.08-.2-.12-.3-.08-.22-.14-.44-.2-.65-.06-.2-.1-.42-.16-.61-.02-.12-.04-.24-.08-.36,0-.06,0-.1-.02-.16-.04-.22,0,.04,0,.12,0-.44-.08-.87-.08-1.31,0-.26,0-.51.04-.77,0-.08.08-.3.04-.36,0,0-.04.32,0,.14,0-.08.02-.16.04-.24.08-.51.22-1.03.38-1.52.08-.24.16-.45.24-.69.04-.12.08-.22.14-.34,0-.04.04-.14.06-.18-.06.08-.1.24,0,.06.44-.97.97-1.88,1.58-2.75.12-.18.26-.45.44-.59,0,0-.18.22-.06.08.04-.04.08-.1.12-.14.08-.12.18-.22.28-.34.16-.2.34-.4.51-.57.02-.02.26-.22.26-.24,0,0-.26.18-.1.08.06-.04.12-.08.2-.12.02,0,.14-.06.14-.08-.02.04-.28.08-.12.06.02,0,.14-.02.16-.04h-.1c-.12.02-.14.04-.06.04.02-.02.12.02.14,0s-.38-.02-.2-.02c.02,0,.12.04.14.04-.06.04-.36-.2-.1-.04.06.04.32.22.1.06s.04.06.08.1c.08.08.14.16.2.22.12.12-.1-.12-.1-.12,0,.06.08.12.12.18.67,1.03,1.11,2.23,1.64,3.34.28.61.57,1.23.85,1.82.3.65.57,1.33.97,1.92.44.63,1.17.95,1.92.63.69-.3,1.09-1.07.89-1.82-.2-.75-.57-1.46-.91-2.18-.28-.61-.57-1.23-.85-1.82-.51-1.11-.97-2.29-1.62-3.36-.69-1.15-1.78-2.16-3.2-2.2s-2.57.97-3.44,2.04c-2.99,3.7-5.08,8.76-3.34,13.49.87,2.35,2.49,4.51,4.83,5.56l-.55-2.1c-.44.91-.85,1.82-1.27,2.75-.44.99-.89,2-1.23,3.03-.32.95-.59,1.92-.87,2.89s-.4,2.06-.53,3.09c-.12.87,1.29,1.21,1.66.45h.04Z"/>
      <path class="uuid-2bd4ed41-e7be-4a15-9eed-8ce1206afc15" d="M141.51,122.42c-.49.14-.99.24-1.46.44-.55.24-1.11.44-1.64.73-.95.49-1.88,1.01-2.83,1.52s-1.9,1.05-2.85,1.52c-.45.22-.91.47-1.38.65,0,0,.24-.1.08-.04-.06.02-.1.04-.16.06-.1.04-.22.08-.34.12-.26.1-.51.18-.77.26-.28.08-.55.16-.83.2-.14.02-.26.06-.4.08-.06,0-.12,0-.18.02-.2.04.34-.02.02,0-.26.02-.53.04-.79.04-.16,0-.3,0-.45-.02-.04,0-.24-.04,0,0,.26.04-.12-.02-.14-.02-.63-.12-1.25.02-1.66.57-.4.51-.44,1.19-.12,1.76,1.11,2,2.89,3.7,4.98,4.63l-.57-2.22c-1.15,1.66-2,3.6-2.55,5.54-.67,2.37-.91,4.96-.24,7.36.1.34.2.65.34.97.16.38.32.81.53,1.17.49.75,1.13,1.31,1.86,1.82.44.32,1.19.18,1.54-.2.38-.42.49-1.03.2-1.54-.14-.26-.28-.49-.4-.77-.06-.12-.12-.24-.16-.38-.02-.06-.06-.1-.08-.16-.02-.06-.04-.1-.08-.16.1.24.12.3.08.18-.16-.34-.3-.71-.47-1.05,0,0,.16.4.06.14-.02-.06-.04-.1-.06-.16-.06-.14-.1-.3-.16-.44-.08-.26-.14-.51-.2-.77-.02-.12-.04-.26-.08-.38,0-.06-.04-.14-.04-.22l.04.26v-.16c-.06-.53-.08-1.07-.06-1.6,0-.26.02-.51.06-.77,0-.14.1-.65,0-.08.02-.14.04-.28.06-.42.08-.53.2-1.05.36-1.56s.3-1.01.49-1.52c.08-.22.18-.44.26-.65.08-.2-.18.42-.06.14.02-.04.04-.1.06-.14.06-.12.12-.26.16-.38.4-.85.83-1.68,1.34-2.45.45-.65.2-1.88-.57-2.22-.45-.2-.91-.44-1.33-.69-.2-.12-.4-.26-.57-.4-.14-.1-.1-.08.08.06-.06-.04-.1-.08-.16-.12-.1-.08-.18-.16-.26-.24-.36-.32-.69-.67-1.01-1.05-.1-.14-.08-.1.06.08-.04-.06-.08-.1-.12-.16-.06-.08-.12-.16-.18-.24-.16-.22-.3-.45-.42-.67l-1.78,2.31c1.25.22,2.49.18,3.7-.16,1.11-.3,2.18-.79,3.2-1.34,1.96-1.07,3.86-2.27,5.66-3.58.53-.4,1.07-.79,1.56-1.25s.89-.91,1.31-1.4c.32-.38.02-.99-.49-.85h0v-.02Z"/>
      <path class="uuid-2bd4ed41-e7be-4a15-9eed-8ce1206afc15" d="M128.88,140.32c.3.26.61.47.97.67s.73.38,1.13.51c.08.02.16.06.26.08.04,0,.08.02.12.04.12.04.24.04.36.06.18.02.36.04.53.04.44,0,.87,0,1.31-.08.2-.02.4-.08.57-.14.16-.06.32-.14.45-.26,0,0,.02-.04.04-.04.02-.04.06-.06.08-.1.1-.1.18-.22.26-.34.06-.1.1-.22.1-.34,0-.1,0-.18-.06-.26-.08-.18-.24-.34-.42-.38-.1-.02-.2-.04-.3-.08-.02,0-.06,0-.08-.02h-.04s-.1-.02-.14-.02c-.08-.02-.16-.02-.26,0-.1,0-.2.04-.3.06-.24.06-.49.1-.73.12l.26-.04c-.4.06-.79.06-1.21.04h-.59c-.2,0-.4-.02-.59-.04h.2c-.49-.04-.97-.16-1.42-.34h-.14s-.14,0-.2.02c-.1.04-.2.12-.24.22-.04.08-.06.16-.08.26,0,.12.06.28.16.36h0v-.02Z"/>
      <path class="uuid-2bd4ed41-e7be-4a15-9eed-8ce1206afc15" d="M178.04,183.12c-.12.89-.34,1.8-.38,2.71s-.12,1.72-.14,2.59c-.06,1.76-.24,3.52-.4,5.28-.04.45-.1.89-.16,1.34,0,.08-.02.16-.04.24,0,.06-.06.47,0,.08-.02.24-.06.49-.1.73-.12.85-.28,1.7-.44,2.55-.34,1.74-.77,3.44-1.27,5.14-.28.95-.59,1.88-.93,2.81-.18.47-.36.97-.53,1.44-.1.24-.18.45-.28.69-.04.1-.08.2-.12.28s-.06.16-.1.24q.08-.2,0-.04c-.18.42-.26.79-.16,1.23.12.47.49.85.93,1.03.42.18.81.18,1.23,0,.49-.22.73-.55.93-1.03,2.77-6.7,4.35-14.08,4.15-21.34-.04-1.09-.14-2.14-.3-3.2-.14-.99-.49-1.96-.81-2.91-.22-.61-1.01-.45-1.09.14h-.02Z"/>
      <path class="uuid-2bd4ed41-e7be-4a15-9eed-8ce1206afc15" d="M186.29,180.66c-.04.73-.12,1.48-.12,2.23s0,1.48-.04,2.23c-.06,1.48-.06,2.99-.18,4.47-.06.83-.16,1.68-.28,2.51l.06-.38c-.12.93-.26,1.86-.44,2.77s-.3,1.86-.47,2.77c-.08.38-.06.73.14,1.07.16.28.49.55.83.63.73.16,1.5-.22,1.7-.97.3-1.09.55-2.18.73-3.28.18-1.21.32-2.43.4-3.66.16-2.22.2-4.47-.06-6.66-.08-.69-.14-1.4-.3-2.08-.14-.63-.34-1.25-.51-1.86-.1-.36-.44-.57-.81-.53s-.63.36-.63.73h-.02Z"/>
      <path class="uuid-2bd4ed41-e7be-4a15-9eed-8ce1206afc15" d="M114.28,147.62s.02-.06.04-.08l-.28.28s-.32.04-.34.08c0,0,.28-.04.3-.04.06,0,.08-.08,0,0-.1.06,0,.02.04,0h-.12.1s-.38-.16.04,0c.32.14.1.04.04,0-.12-.06-.12-.12,0,0,.04.04.26.3.14.14.14.18.26.34.4.51-.14-.2.1.16.14.22.08.14.18.28.24.44.06.12.12.26.18.4-.1-.22.04.1.06.18.12.32.22.63.3.97.18.69.34,1.42.45,2.14.02.18.06.34.08.51-.04-.22.02.2.04.26.04.4.08.79.1,1.21.04.75.06,1.5.04,2.23s-.08,1.5-.14,2.25c-.04.36-.08.69-.12,1.05,0,0-.04.28,0,.14s0,.14,0,.12c-.04.2-.06.4-.1.61-.47,3.05-1.27,6.03-2.02,9.02-.38,1.48-.75,2.97-1.09,4.47-.34,1.5-.65,3.18-.51,4.79.14,1.76.71,3.34,1.86,4.71.47.55,1.07,1.05,1.72,1.4.91.47,1.74.57,2.75.4.59-.1,1.11-.81,1.07-1.4-.04-.67-.44-1.19-1.07-1.4-.02,0-.24-.08-.06,0s-.06-.04-.1-.06l-.47-.24c.08.04-.53-.2-.24-.1.2.08,0,0-.04-.02-.16-.08-.3-.18-.45-.26-.26-.16.16.16-.08-.06-.12-.1-.24-.22-.34-.32-.1-.1-.18-.2-.28-.3-.16-.18.14.22,0,0-.04-.08-.1-.16-.16-.22-.16-.26-.3-.51-.42-.79.14.32,0-.04-.04-.18-.06-.2-.12-.38-.16-.57,0-.08-.04-.18-.06-.26,0,0-.04-.3,0-.12s0-.12,0-.12c0-.12,0-.24-.02-.34,0-.4,0-.81.02-1.21,0-.2.04-.42.06-.61,0-.08,0-.18.04-.26,0,.04-.04.22,0,.02.08-.44.16-.87.24-1.31.16-.77.34-1.54.51-2.31.38-1.58.77-3.16,1.17-4.77.77-3.22,1.48-6.51,1.74-9.81.24-3.12.12-6.51-.97-9.49-.57-1.56-1.44-3.24-3.07-3.88-.77-.32-1.7-.12-2.27.49-.61.65-.3,1.74.63,1.8.2,0,.47-.12.55-.32h-.08Z"/>
      <path class="uuid-2bd4ed41-e7be-4a15-9eed-8ce1206afc15" d="M101.64,143.64c-.06-.34-.1-.67-.16-.99-.04-.22.02.18,0,0,0-.08-.02-.18-.04-.26,0-.16-.04-.3-.06-.45-.06-.63-.08-1.29-.12-1.92-.1-1.29-.1-2.57.08-3.86l-.04.36c.16-1.11.42-2.2.83-3.22l-.16.36c.28-.63.57-1.25,1.01-1.8l-.24.32c.26-.32.53-.61.85-.87l-.32.24c.26-.2.53-.36.81-.49l-.38.16c.3-.12.59-.2.91-.26l-.42.06c.36-.04.69-.04,1.03,0l-.42-.06c.61.1,1.23.32,1.8.55l-.38-.16c.38.16.73.34,1.09.53.26.14.55.24.83.32.18.06.38.1.55.1s.36-.04.51-.06c.26-.06.57-.3.69-.53.16-.3.18-.57.12-.89-.12-.61-.67-1.17-1.19-1.5-.32-.22-.63-.42-.97-.59-.89-.47-1.78-.75-2.79-.85-1.62-.16-3.26.59-4.31,1.82s-1.62,2.57-1.92,4.07c-.34,1.64-.42,3.3-.24,4.96.06.51.12,1.05.2,1.56.08.44.2.87.32,1.29.26.85.55,1.7.87,2.53.08.2.18.38.38.49.18.1.44.14.63.08.45-.14.65-.55.57-1.01h0l.04-.02Z"/>
      <path class="uuid-2bd4ed41-e7be-4a15-9eed-8ce1206afc15" d="M97.87,63.17c-.99,2.08-1.88,4.21-2.69,6.37-.81,2.16-1.48,4.31-2.06,6.55-1.21,4.53-2,9.14-2.55,13.8-.55,4.67-.89,9.26-.99,13.9-.08,3.22-.12,6.41.59,9.57.65,2.89,1.9,5.79,4.33,7.59,1.23.89,2.75,1.34,4.25,1.34,2.18,0,4.09-.89,5.72-2.29s2.77-3.14,3.9-4.87,2.29-3.66,3.32-5.54c2.12-3.92,3.9-8.01,5.32-12.22,2.79-8.27,4.19-17.05,4.03-25.77,0-1.07-.06-2.12-.12-3.18l-4.01.53c1.15,7,4.55,13.53,9.3,18.79,4.75,5.26,10.96,9.24,17.74,11.21,7.46,2.16,17.17,2.33,22.88-3.76,2.75-2.93,4.29-7.02,3.64-11.06s-3.62-6.98-6.49-9.45c-6.39-5.5-13.88-9.65-21.95-12.1-.97-.3-1.96-.55-2.95-.81l-1.09,3.98c10.17,2.16,20.55,4.19,30.97,2.67,7.79-1.13,15.68-4.77,20.85-10.84,2.87-3.38,4.94-7.44,5.46-11.89.47-4.09-1.01-8.19-4.01-11.02-5.66-5.34-14.24-6.07-21.62-5.64-9.57.55-18.99,3.11-27.55,7.46-1.05.53-2.08,1.11-3.11,1.68-.85.49-1.17,1.56-.79,2.45.36.83,1.38,1.46,2.31,1.13,6.33-2.29,12.12-5.89,16.97-10.58,2.41-2.33,4.57-4.92,6.43-7.71,1.86-2.79,3.7-6.41,2.49-9.79s-4.83-4.75-8.27-4.69c-1.62.02-3.22.3-4.83.55-1.6.26-3.03.55-4.51.93-5.81,1.44-11.47,3.82-16.45,7.2-5.76,3.9-10.56,9.04-14.02,15.05l3.56,1.5c1.84-4.63,2.95-9.41,3.64-14.32.77-5.32.77-11.17-2.75-15.56-2.97-3.72-8.31-5.66-12.7-3.36-2.27,1.19-3.9,3.36-5.18,5.54-1.36,2.31-2.49,4.81-3.38,7.36-1.96,5.66-2.63,11.79-1.92,17.72.12,1.01.81,2,1.94,1.94.99-.04,2.04-.85,1.94-1.94-.91-11.11-9.14-20.85-20.17-23.04-5.62-1.13-11.61-.47-16.73,2.18-2.57,1.33-4.79,3.38-5.64,6.21-.79,2.65-.26,5.48.91,7.93,2.89,6.01,9.69,8.05,15.64,9.59l1.03-3.74c-6.76-1.72-13.86-2-20.71-.51-3.11.67-6.09,1.76-9,3.03-2.75,1.21-5.36,2.67-7.71,4.51-2.35,1.84-4.27,3.9-5.36,6.59-1.17,2.87-.79,6.21,1.88,8.07,1.94,1.36,4.59,1.5,6.88,1.4s4.45-.49,6.65-.89c7.71-1.36,15.33-3.28,22.74-5.83.97-.34,1.7-1.34,1.36-2.41-.32-.97-1.36-1.7-2.41-1.36-9.89,3.24-19.92,6.55-28.76,12.16-7.61,4.85-15.05,11.59-17.62,20.55-.91,3.14-1.34,6.88-.22,10.03.57,1.58,1.48,2.93,2.87,3.9s3.14,1.27,4.75,1.11c2.31-.22,4.47-1.07,6.55-2.1,2.08-1.03,4.01-2.31,5.87-3.7,3.88-2.91,7.36-6.25,10.96-9.47,3.34-2.99,6.49-5.58,10.44-7.75,3.24-1.8,6.63-3.26,9.77-5.22,1.05-.65,2.06-1.33,3.07-2.04l-2.75-2.75c-.49.63-1.21,1.56-1.86,2.37s-1.33,1.64-2,2.45c-1.31,1.56-2.63,3.12-3.96,4.67-2.51,2.95-5,5.89-7.34,8.98-2.33,3.09-4.35,6.21-6.07,9.59-.97,1.92-1.84,3.9-2.61,5.89s-1.5,3.99-1.74,6.11c-.38,3.46,1.05,6.74,3.88,8.76,2.83,2.02,6.51,2.16,9.71,1.38,4.07-.99,7.57-3.68,10.46-6.63s5.54-6.61,8.09-10.05c5.56-7.54,10.9-15.35,14.87-23.87.51-1.11,1.01-2.23,1.48-3.38.4-.97-.44-2.25-1.4-2.47-1.17-.28-2.04.36-2.47,1.4,0,.02-.14.36-.04.12-.04.1-.08.2-.12.3-.1.24-.2.47-.3.69-.24.53-.47,1.07-.73,1.6-.47,1.01-.97,2-1.48,2.99-1.05,2.02-2.18,3.99-3.34,5.93-2.33,3.88-4.87,7.63-7.5,11.31-1.27,1.78-2.57,3.54-3.88,5.28-.57.77-1.15,1.52-1.72,2.27.18-.24-.02.04-.06.06-.08.1-.16.22-.26.32-.14.18-.3.38-.44.55-.32.4-.63.79-.97,1.19-1.31,1.56-2.67,3.07-4.19,4.41-.36.32-.71.61-1.07.91-.1.08-.2.16-.32.26.06-.06.26-.2-.06.04-.22.16-.44.32-.63.45-.79.55-1.62,1.05-2.49,1.48-.18.1-.38.18-.57.26-.28.14.28-.1,0,0-.08.04-.16.06-.24.1-.42.16-.85.3-1.29.44-.38.1-.73.2-1.11.26-.1,0-.61.1-.36.06.28-.04-.06,0-.12,0-.12,0-.26.02-.38.04-.36.02-.71.04-1.05.02-.18,0-.34,0-.51-.02-.1,0-.2,0-.3-.02-.22,0-.3.08.04,0-.26.06-.71-.14-.97-.2-.34-.08-.65-.2-.97-.32-.47-.18.24.14-.08-.04l-.47-.24c-.28-.16-.53-.36-.81-.51-.22-.14.28.26.1.08-.04-.04-.1-.08-.14-.12-.12-.12-.26-.24-.38-.36-.1-.1-.2-.22-.3-.32-.04-.04-.08-.1-.12-.14-.24-.28.16.26.04.06-.14-.26-.34-.49-.47-.77,0,0-.22-.4-.2-.42s.16.42.06.12c-.04-.1-.08-.22-.12-.32-.1-.3-.18-.61-.24-.93-.12-.49,0,.28-.02-.1,0-.22-.04-.44-.04-.65,0-.36,0-.71.04-1.09,0-.08,0-.16.02-.24-.02.44-.02.16,0,.04.04-.22.08-.45.12-.67.22-.97.55-1.92.89-2.85s.71-1.94,1.11-2.91c.16-.38.06-.16.04-.08.06-.12.1-.24.16-.38.08-.18.16-.36.24-.55.22-.47.44-.95.65-1.42,1.58-3.32,3.5-6.45,5.66-9.43.49-.69,1.03-1.38,1.54-2.08.2-.26-.18.24,0,0,.06-.08.12-.14.16-.22.14-.18.3-.38.44-.55.28-.36.55-.69.83-1.05,1.15-1.42,2.31-2.81,3.5-4.19,2.51-2.97,5.06-5.91,7.5-8.98.73-.91,1.44-1.84,2.16-2.77.51-.67.28-1.9-.32-2.43s-1.7-.83-2.43-.32c-3.24,2.27-6.66,4.11-10.21,5.87-3.54,1.76-7.08,4.03-10.26,6.65-3.5,2.85-6.72,6.03-10.15,9-.85.73-1.7,1.46-2.57,2.16-.24.2-.47.38-.71.57-.28.2.2-.16-.08.06-.1.08-.22.16-.32.24-.45.34-.91.67-1.38,1.01-1.8,1.27-3.7,2.39-5.72,3.28-.08.04-.45.2-.16.06-.12.04-.24.1-.36.14-.24.08-.47.18-.71.26-.45.16-.93.28-1.38.38-.08,0-.71.14-.42.08s-.3.02-.38.04c-.38.02-.75,0-1.13,0s.16.04.16.02c-.04,0-.18-.02-.24-.04-.16-.04-.3-.06-.45-.12-.08-.02-.38-.16-.42-.14.16-.08.4.2.18.08-.1-.06-.2-.1-.28-.14-.12-.08-.24-.16-.36-.22-.3-.18.18.12.16.12,0,0-.14-.12-.16-.14-.1-.1-.2-.2-.3-.3-.04-.06-.1-.1-.14-.16-.24-.26.04-.14.04.08,0-.18-.36-.55-.45-.73-.04-.08-.2-.3-.2-.4,0,0,.18.49.08.16-.04-.1-.06-.18-.1-.28-.1-.3-.18-.59-.26-.91-.04-.16-.06-.32-.1-.47,0-.08-.02-.16-.04-.24-.04-.2.06.49,0,.02-.06-.73-.1-1.46-.06-2.2,0-.38.04-.75.08-1.11,0-.08,0-.2.04-.28-.14.38-.04.26,0,.1.04-.24.08-.47.12-.71.16-.83.36-1.64.61-2.45.16-.47.32-.95.49-1.42.04-.12.28-.69.16-.4l.36-.77c.45-.95.95-1.86,1.5-2.73.28-.44.55-.85.85-1.27.14-.22.3-.42.45-.61.1-.14.2-.26.3-.38.12-.16-.12.14.1-.14,1.36-1.68,2.85-3.26,4.47-4.73.81-.73,1.66-1.44,2.53-2.14.04-.02.36-.28.18-.14s.16-.12.18-.14c.2-.16.42-.32.61-.47.44-.32.89-.65,1.33-.95,8.11-5.66,17.11-8.98,26.38-12.06,1.19-.4,2.37-.79,3.54-1.17l-1.05-3.76c-6.21,2.16-12.56,3.94-19.01,5.28-2.33.47-4.67.93-7.02,1.29-.51.08.4-.04-.12,0-.1,0-.2.02-.32.04-.26.04-.53.06-.79.08-.57.06-1.17.1-1.76.1-.51,0-1.05,0-1.56-.04-.1,0-.89-.1-.4-.02-.28-.04-.57-.1-.85-.16-.22-.06-.45-.12-.67-.2-.08-.02-.18-.06-.26-.1.45.16.06.02-.04-.02-.2-.1-.38-.22-.55-.32-.28-.16.04.02.08.06-.12-.12-.24-.24-.36-.34-.06-.04-.2-.24,0,.04-.12-.14-.2-.3-.3-.45-.04-.06-.14-.32-.04-.04-.06-.16-.1-.34-.14-.49,0-.06-.06-.36,0-.02,0-.18-.02-.36-.02-.53v-.36c.02-.22.02-.24,0-.04,0-.1.04-.18.06-.26.06-.3.14-.59.24-.87.04-.14.1-.3.16-.44-.1.26,0-.02.02-.06.28-.57.59-1.13.95-1.66,0,0,.34-.45.14-.2.08-.1.16-.2.24-.28.2-.24.4-.47.61-.69.45-.49.95-.97,1.48-1.42.93-.81,1.86-1.46,3.05-2.2s2.37-1.34,3.6-1.92,1.98-.89,3.28-1.38c1.38-.53,2.81-.99,4.25-1.36,6.8-1.8,13.92-1.6,20.69.18.99.26,2.16-.32,2.39-1.36.24-1.05-.3-2.12-1.36-2.39-1.25-.34-2.51-.67-3.74-1.05-1.23-.38-2.47-.83-3.34-1.25-1.13-.51-2.22-1.15-3.2-1.88-.3-.22.34.3-.16-.12-.1-.08-.22-.18-.32-.26-.2-.18-.42-.36-.59-.55s-.38-.38-.55-.59c-.08-.1-.16-.18-.24-.28-.3-.36.1.18-.12-.18-.3-.45-.59-.89-.85-1.36-.06-.14-.14-.26-.2-.4-.04-.08-.2-.45-.06-.1-.12-.28-.22-.55-.3-.83-.08-.26-.14-.51-.2-.77-.02-.12-.16-.85-.1-.42-.08-.57-.06-1.13-.04-1.7,0-.08.06-.4,0,0,0-.12.04-.22.06-.34.06-.28.12-.55.22-.81.04-.1.08-.22.12-.32-.1.34-.04.08,0,0,.14-.3.3-.57.47-.83.04-.06.28-.4.08-.14.08-.1.16-.2.24-.3.2-.22.4-.42.61-.61.12-.1.24-.22.36-.32.04-.04.3-.22.06-.04.26-.2.53-.38.81-.53,2.08-1.29,4.21-1.98,6.78-2.45.14-.02.26-.04.4-.06-.04,0,.59-.1.34-.06s.38-.04.34-.04c.14,0,.26-.02.4-.04.67-.06,1.34-.1,2-.1.59,0,1.21,0,1.8.04.28,0,.53.04.81.06.16,0,.34.04.49.06q.14,0-.02,0c.1,0,.2.02.3.04,1.23.18,2.43.45,3.62.83,1.34.42,2.04.71,3.24,1.33,1.09.55,2.1,1.23,3.09,1.94.04.04.3.22.06.04.1.08.2.16.3.24.24.2.47.4.71.61.44.4.87.81,1.29,1.23.45.47.89.97,1.31,1.46.08.1.16.2.24.3.28.34-.08-.12.16.2.2.28.42.55.59.83.73,1.09,1.4,2.23,1.96,3.42.06.14.14.28.2.44.02.06.24.55.1.22.12.3.24.57.34.87.22.61.42,1.25.59,1.88s.32,1.27.44,1.92c.06.32.1.61.14.93-.04-.36,0,.04,0,.14.02.22.04.44.06.65h3.9c-.59-4.88-.28-9.51.97-14.14.63-2.37,1.4-4.45,2.45-6.55.53-1.07,1.11-2.12,1.74-3.11.14-.22.28-.44.44-.65.1-.14.18-.28.28-.4.02-.04.26-.36.14-.2s.12-.16.16-.18c.08-.1.16-.2.26-.3.2-.22.4-.44.59-.63.18-.18.38-.36.57-.51-.24.2.08-.06.14-.1.1-.08.22-.14.32-.22.22-.14.44-.26.67-.38.06-.02.42-.18.2-.1s.2-.06.26-.08c.22-.06.44-.12.65-.18,0,0,.53-.08.24-.04-.26.04.1,0,.16,0h1.01c.2,0,.34.04.06,0,.47.08.93.18,1.38.34.1.04.22.08.32.12.06,0,.38.16.16.06s.12.06.16.08c.14.06.26.12.38.2.44.24.85.49,1.25.79.24.18-.22-.18.02.02.1.08.18.16.28.24.2.18.4.36.57.55s.36.38.53.59c.04.04.26.32.12.14s.08.12.12.16c.28.4.53.83.77,1.27.26.51.36.73.55,1.38.18.55.34,1.13.44,1.72.02.14.06.28.08.42,0-.06.1.61.06.36-.02-.2.02.22.02.26,0,.14.02.28.04.42.04.59.08,1.21.08,1.8,0,1.21-.1,2.41-.24,3.62,0-.08-.08.61-.04.38.02-.16-.04.32-.06.38-.06.36-.12.71-.18,1.07-.12.69-.24,1.36-.36,2.06-.22,1.23-.45,2.45-.75,3.66-.59,2.51-1.4,4.94-2.35,7.34-.36.89.32,1.96,1.13,2.29.87.38,1.94.04,2.43-.79,1.48-2.59,2.99-4.67,4.79-6.72.95-1.07,1.94-2.1,2.99-3.07.47-.44.97-.87,1.46-1.29.22-.2.45-.38.67-.57.14-.12.28-.22.42-.34.1-.08.18-.14.28-.22q-.16.12.02,0c2.22-1.66,4.57-3.14,7.04-4.41.57-.3,1.17-.57,1.76-.85.32-.16.65-.3.97-.44.36-.16.1-.04.02,0,.22-.1.44-.18.67-.28,1.34-.53,2.69-1.01,4.07-1.44,2.69-.83,5.44-1.44,8.23-1.86.18-.02.38-.06.55-.08.61-.08-.4.04.22-.02.36-.04.69-.08,1.05-.12.69-.06,1.4-.08,2.12-.06.18,0,.36.02.53.04.08,0,.4.04,0,0,.34.04.67.12,1.01.2.16.04.32.1.47.14.49.14-.32-.18.14.06.3.16.57.3.83.49-.36-.28.04.06.1.12.12.12.24.24.34.36-.28-.36.08.16.1.2.06.1.12.22.18.34-.16-.36.04.18.06.22.04.18.1.36.12.53-.06-.44,0,.16,0,.22,0,.22,0,.44-.02.65-.02.36.1-.44-.02.14-.04.2-.08.38-.12.57-.1.4-.24.75-.36,1.13-.22.59.16-.3-.12.28-.06.12-.12.24-.18.36-.2.42-.44.83-.67,1.23-.38.61-.77,1.21-1.17,1.8-.22.32-.45.63-.67.95-.12.16-.24.32-.36.47-.04.04-.36.47-.18.22-.95,1.25-1.98,2.41-3.07,3.54-1.17,1.23-2.41,2.37-3.72,3.46-.75.61-1.13.91-1.76,1.38-.67.49-1.38.99-2.08,1.44-1.42.93-2.89,1.78-4.39,2.55-.75.38-1.52.75-2.29,1.09,0,0-.59.26-.26.12-.24.1-.47.2-.73.3-.42.16-.85.34-1.29.47l1.5,3.58c3.94-2.27,7.75-3.99,12-5.4,2.14-.71,4.29-1.31,6.49-1.8,1.11-.26,2.23-.47,3.36-.65,1.13-.18,2-.32,2.97-.44,3.98-.45,8.05-.65,12.04-.18.08,0,.38.06-.02,0,.12,0,.22.04.34.04.2.02.4.06.57.1.42.08.83.16,1.25.24.85.18,1.68.4,2.49.65.4.12.79.26,1.17.4.18.06.36.14.53.2.06.02.38.16.14.06-.26-.12.22.1.22.1.73.34,1.42.69,2.1,1.13.34.2.65.44.97.65.06.04.12.1.18.14-.34-.24-.1-.08-.04-.02.16.14.32.26.47.4.28.26.55.51.81.79.12.12.24.26.36.4.06.08.12.16.2.24.24.28-.12-.18,0,0,.44.67.83,1.31,1.19,2.04-.18-.36,0,0,.06.18s.12.36.18.51c.16.49.28,1.01.36,1.52-.04-.26.04.36.04.44,0,.3.02.57.02.87,0,.53-.04,1.09-.1,1.62.04-.26-.02.1-.02.12-.02.14-.06.28-.08.44-.06.26-.1.49-.18.75-.14.57-.32,1.13-.51,1.68-.28.79-.63,1.54-1.11,2.43-.44.79-.91,1.54-1.42,2.27-.12.18-.24.34-.38.51-.18.26.18-.22,0,.02-.06.08-.12.14-.16.22-.3.38-.61.73-.93,1.09-.61.69-1.29,1.33-1.98,1.96-.34.3-.67.59-1.03.87-.08.06-.14.12-.22.18-.24.2.22-.18-.02,0-.22.16-.44.32-.65.47-.73.53-1.5,1.03-2.29,1.48s-1.6.89-2.41,1.29c-.42.2-.83.4-1.25.57-.3.12.26-.1-.02,0-.08.04-.18.08-.26.1-.26.1-.51.2-.77.3-1.74.65-3.56,1.19-5.38,1.56-9.06,1.9-18.57.26-27.61-1.6-1.19-.24-2.35-.49-3.52-.73-1.05-.22-2.27.32-2.53,1.44-.24,1.07.32,2.25,1.44,2.53,1.88.45,3.72,1.01,5.54,1.66.93.34,1.84.69,2.75,1.05.22.1.04,0,0,0,.14.06.26.12.4.16.2.08.38.18.57.26.47.22.95.44,1.42.65,3.48,1.66,6.78,3.68,9.87,5.99.06.04.53.42.34.26.2.16.4.3.57.45.38.32.77.61,1.15.93.69.59,1.38,1.19,2.04,1.82.61.59,1.23,1.21,1.78,1.88.08.1.16.2.24.3,0,0,.2.26.08.1s.06.08.06.1c.08.1.14.2.22.32.24.36.47.73.67,1.11.1.2.18.4.3.57.12.2,0-.04-.02-.06.04.08.06.18.1.26.16.44.3.87.38,1.33.02.14.08.55.04.2.02.22.04.44.04.67,0,.45-.02.89-.06,1.33-.02.32.06-.32,0,0,0,.08-.04.18-.04.28-.04.22-.08.42-.14.61-.1.42-.22.81-.38,1.21-.04.08-.06.18-.1.26.02-.08.16-.36,0,0-.08.16-.16.34-.24.49-.2.4-.44.79-.67,1.17-.1.16-.22.3-.32.44-.18.26.2-.22,0,0-.06.08-.12.14-.18.22-.28.32-.55.63-.87.93s-.63.57-.95.85c.26-.22-.08.06-.18.12-.2.14-.42.28-.61.4-.38.24-.77.45-1.17.65-.22.1-.44.22-.65.32.04,0,.24-.1,0,0-.16.06-.32.12-.49.18-.89.32-1.8.55-2.71.73-.24.04-.47.08-.73.12,0,0-.36.04-.14.02.24-.02-.2.02-.26.02-.49.06-.99.08-1.48.1-.99.04-1.98.02-2.97-.04-.45-.04-.91-.08-1.36-.12-.16,0-.57-.08-.2,0-.24-.04-.45-.06-.69-.1-.81-.14-1.62-.3-2.41-.47-1.56-.38-3.11-.87-4.59-1.46-.2-.08-.38-.16-.57-.24.34.14-.02,0-.16-.08-.4-.18-.79-.36-1.19-.55-.71-.34-1.4-.71-2.1-1.11-1.42-.81-2.79-1.72-4.09-2.71-.32-.24.16.14-.14-.12-.16-.12-.32-.26-.47-.4-.34-.28-.67-.55-1.01-.85-.59-.51-1.17-1.07-1.74-1.62-1.15-1.13-2.22-2.35-3.2-3.62.26.34-.1-.14-.16-.22-.12-.16-.24-.34-.36-.49-.24-.34-.47-.67-.69-1.01-.45-.67-.89-1.38-1.31-2.1-.42-.71-.79-1.42-1.15-2.18-.16-.34-.34-.69-.47-1.03-.08-.16-.14-.32-.22-.47-.12-.28.12.3,0,0-.04-.1-.08-.22-.14-.32-.59-1.48-1.09-3.03-1.46-4.59-.2-.79-.36-1.6-.47-2.41-.16-1.01-1.33-1.58-2.23-1.46s-1.84.99-1.78,2c.24,4.13.16,8.27-.3,12.38-.06.49-.12.99-.18,1.48,0,.1-.02.22-.04.32.04-.32,0,.04,0,.1-.04.28-.08.55-.12.83-.16,1.05-.34,2.1-.53,3.14-.4,2.02-.87,4.01-1.42,5.99s-1.19,3.94-1.9,5.85c-.75,2.06-1.36,3.52-2.29,5.48-1.74,3.72-3.8,7.32-6.17,10.7-.53.77-.79,1.13-1.54,1.9-.16.16-.32.32-.47.45-.1.08-.18.16-.28.26,0,0-.24.2-.08.08s-.08.06-.1.06c-.1.08-.2.14-.3.2-.2.14-.42.24-.63.36-.06.04-.34.16-.02.02-.08.04-.18.06-.26.1-.2.08-.42.12-.61.18-.12.02-.24.04-.36.06,0,0,.38-.02.16-.02-.18,0-.38.02-.55.04h-.47s-.26-.04-.26-.02c0,0,.42.08.22.02-.3-.08-.59-.14-.89-.24-.34-.1.14.06.14.06-.04,0-.2-.1-.22-.1-.12-.06-.24-.12-.36-.2s-.24-.16-.34-.22c-.06-.04-.2-.18,0,0,.26.22-.02-.02-.08-.08-.2-.2-.42-.38-.59-.59-.08-.08-.28-.44-.16-.18s-.1-.16-.18-.26c-.36-.51-.63-1.07-.89-1.62-.16-.32.12.34-.04-.08-.06-.14-.12-.3-.16-.44-.12-.34-.24-.67-.34-1.03-.18-.63-.34-1.27-.45-1.9-.06-.3-.1-.61-.16-.91-.08-.47.04.28,0-.06,0-.18-.04-.34-.06-.51-.14-1.36-.14-2.75-.12-4.11.04-4.41.2-8.82.57-13.23s.95-8.6,1.72-12.88c.38-2.14.83-4.27,1.36-6.39.53-2.12,1.07-4.27,1.72-6.39.32-1.03.65-2.06,1.03-3.07.4-1.13-1.42-1.9-1.94-.81l-.06-.1Z"/>
      <g>
        <path class="uuid-a30b3650-acff-4473-a2a2-da8b9d711343" d="M113.27,42.01c-5.12-1.76-12.4-1.98-17.29.63-1.98,1.07-4.98,3.68-3.9,6.27,1.44,3.42,8.23,3.72,11.19,3.9,4.19.24,12.82,1.34,16.02-2.25,3.2-3.6-.26-7.26-4.03-7.99"/>
        <path class="uuid-2bd4ed41-e7be-4a15-9eed-8ce1206afc15" d="M113.71,41.25c-1.19-.57-2.41-1.05-3.68-1.42-1.38-.42-2.83-.59-4.25-.71-2.75-.24-5.64.04-8.29.87s-5.16,2.33-6.7,4.69c-.85,1.29-1.23,3.01-.77,4.51.42,1.33,1.29,2.33,2.37,3.16.89.67,1.96,1.11,3.01,1.44.99.32,2.02.53,3.05.69,1.92.3,3.84.42,5.76.53,2.08.14,4.15.3,6.25.28,1.29,0,2.57-.12,3.86-.3,1.03-.14,2.08-.36,3.05-.73,1.17-.47,2.25-1.05,3.16-1.94,1.21-1.19,2-2.75,2.12-4.45.1-1.56-.59-3.03-1.58-4.19-.99-1.17-2.27-1.86-3.66-2.33-.81-.28-1.62-.22-2.45-.06-.51.1-.89.63-.95,1.11-.08.53.18,1.03.63,1.33.14.08.26.18.4.28.2.14-.08-.08-.08-.08.06,0,.38.28.45.34.26.18.49.3.77.45s.53.32.79.49c.06.04.32.24.04.02-.24-.2-.06-.04,0,0,.12.1.24.2.36.32.2.2.42.38.61.59.06.06.1.12.16.18.18.2-.12-.18-.14-.18.1.08.2.26.26.38.08.12.14.24.2.36,0,0,.1.18.1.2,0,0-.18-.49-.1-.24.1.28.18.55.22.83l-.08-.53c.04.3.04.57,0,.87l.08-.53c-.04.34-.14.67-.26.99l.2-.49c-.1.22-.2.44-.34.65-.06.12-.14.22-.22.32-.1.12-.04.06.14-.18-.06.06-.1.12-.16.18-.24.28-.49.53-.79.75l.42-.34c-.47.36-.99.63-1.52.87l.51-.22c-1.09.45-2.23.71-3.4.87l.57-.08c-3.86.51-7.77,0-11.63-.2-1.03-.06-2.06-.14-3.09-.28l.57.08c-1.42-.2-2.85-.47-4.17-1.03l.49.22c-.3-.12-.59-.26-.87-.44-.14-.08-.3-.18-.44-.26-.06-.04-.12-.08-.18-.12-.26-.18.45.38.18.14-.22-.2-.42-.4-.61-.61-.12-.14.36.53.14.18-.04-.06-.08-.12-.1-.16-.08-.14-.16-.28-.22-.42l.22.49c-.1-.26-.18-.51-.22-.79l.08.55c-.02-.26-.02-.51,0-.79l-.08.55c.04-.32.14-.63.26-.93l-.2.49c.14-.32.3-.61.49-.89.08-.14.18-.26.28-.4-.38.57,0,.04.12-.12.24-.26.49-.51.75-.75.12-.1.24-.22.36-.32.08-.06.14-.12.22-.18l-.26.2s.1-.08.14-.1c.53-.4,1.09-.71,1.68-1.01.14-.08.3-.14.45-.22.12-.06.45-.16-.08.02.08-.02.16-.06.24-.1.36-.14.73-.28,1.11-.4.73-.24,1.46-.42,2.22-.55.34-.06.71-.08,1.05-.18-.47.12-.16.02-.04,0,.1,0,.22-.02.32-.04.22-.02.44-.04.63-.06,1.56-.12,3.11-.18,4.67-.06.83.06,1.68.08,2.51.16.2.02.4.04.59.06-.26-.04.08,0,.1,0,.1,0,.2.02.3.04.42.06.83.14,1.25.24s.87-.1,1.03-.51c.16-.38.04-.91-.36-1.09h0v.02Z"/>
      </g>
      <path class="uuid-2bd4ed41-e7be-4a15-9eed-8ce1206afc15" d="M103.13,362.77c4.45-.93,8.98-1.54,13.53-1.68s8.88.04,13.25.89c2.06.4,4.11.91,6.11,1.54.87.28,1.72.59,2.57.93.2.08.42.16.61.24.04,0,.34.14.08.02.08.04.18.08.26.12.44.2.87.38,1.29.59,1.68.79,3.3,1.7,4.87,2.71.77.49,1.5,1.03,2.23,1.56.04.04.3.22.04.04.08.06.14.12.22.18.18.14.34.28.51.42.4.32.77.63,1.15.97,1.52,1.34,2.93,2.81,4.19,4.37.08.1.16.2.24.3.22.28-.28-.38.08.1.16.2.3.4.44.59.3.4.57.81.85,1.23s.57.83.87,1.23c.16.24.34.45.49.69.06.08.1.16.16.24.3.4.38.49.26.34-.06-.08-.04-.04.08.12.53.69,1.33,1.09,2.2.71.77-.34,1.29-1.23,1.01-2.06-.63-1.94-1.66-3.6-2.89-5.22-1.23-1.62-2.55-3.11-4.01-4.49-2.89-2.67-6.17-4.92-9.69-6.66-7.95-3.94-16.93-5.36-25.73-4.63-5.32.44-10.58,1.54-15.7,3.07-.99.3-.57,1.74.42,1.54h0l.04.02Z"/>
    </g>
  </g>
</svg>