<svg xmlns="http://www.w3.org/2000/svg" xmlns:xlink="http://www.w3.org/1999/xlink" version="1.1" width="256" height="256" viewBox="0 0 256 256" xml:space="preserve">
<g style="stroke: none; stroke-width: 0; stroke-dasharray: none; stroke-linecap: butt; stroke-linejoin: miter; stroke-miterlimit: 10; fill: none; fill-rule: nonzero; opacity: 1;" transform="translate(1.4065934065934016 1.4065934065934016) scale(2.81 2.81)">
	<path d="M 44.981 52.065 L 7.442 89.48 C 8.298 89.811 9.224 90 10.195 90 h 69.61 c 0.927 0 1.812 -0.174 2.635 -0.477 L 44.981 52.065 z" style="stroke: none; stroke-width: 1; stroke-dasharray: none; stroke-linecap: butt; stroke-linejoin: miter; stroke-miterlimit: 10; fill: #43273a; fill-rule: nonzero; opacity: 1;" transform=" matrix(1 0 0 1 0 0) " stroke-linecap="round"/>
	<path d="M 65.403 0 c -8.617 0 -15.629 7.011 -15.629 15.63 c 0 7.052 4.31 13.221 8.873 19.751 c 2.389 3.419 4.825 6.906 6.756 10.666 c 1.931 -3.76 4.368 -7.247 6.757 -10.666 c 4.563 -6.531 8.873 -12.699 8.873 -19.752 C 81.033 7.011 74.022 0 65.403 0 z M 65.404 19.338 c -3.05 0 -5.524 -2.473 -5.524 -5.524 c 0 -3.051 2.473 -5.524 5.524 -5.524 c 3.05 0 5.524 2.473 5.524 5.524 C 70.927 16.865 68.454 19.338 65.404 19.338 z" style="stroke: none; stroke-width: 1; stroke-dasharray: none; stroke-linecap: butt; stroke-linejoin: miter; stroke-miterlimit: 10; fill: #43273a; fill-rule: nonzero; opacity: 1;" transform=" matrix(1 0 0 1 0 0) " stroke-linecap="round"/>
	<path d="M 77.43 39.064 c -3.885 5.561 -7.554 10.812 -8.888 16.813 c -0.327 1.47 -1.631 2.516 -3.138 2.516 c -1.507 0 -2.81 -1.046 -3.138 -2.517 c -1.112 -5.005 -3.857 -9.492 -6.99 -14.07 l -5.741 5.722 l 37.451 37.45 c 0.303 -0.823 0.477 -1.708 0.477 -2.634 V 15.63 C 87.462 24.706 82.362 32.005 77.43 39.064 z" style="stroke: none; stroke-width: 1; stroke-dasharray: none; stroke-linecap: butt; stroke-linejoin: miter; stroke-miterlimit: 10; fill: #43273a; fill-rule: nonzero; opacity: 1;" transform=" matrix(1 0 0 1 0 0) " stroke-linecap="round"/>
	<path d="M 43.346 15.63 c 0 -3.821 0.979 -7.417 2.695 -10.554 H 10.195 c -4.222 0 -7.656 3.435 -7.656 7.657 v 69.61 c 0 0.882 0.158 1.726 0.433 2.516 l 48.582 -48.422 C 47.265 30.176 43.346 23.586 43.346 15.63 z M 39.814 31.98 c -0.865 7.692 -7.363 13.492 -15.114 13.492 c -8.387 0 -15.21 -6.823 -15.21 -15.21 s 6.824 -15.21 15.21 -15.21 c 4.039 0 7.843 1.566 10.71 4.41 c 1.261 1.25 1.269 3.285 0.019 4.546 c -1.25 1.261 -3.285 1.269 -4.546 0.019 c -1.656 -1.642 -3.852 -2.546 -6.184 -2.546 c -4.842 0 -8.782 3.939 -8.782 8.782 c 0 4.842 3.939 8.781 8.782 8.781 c 3.159 0 5.957 -1.667 7.506 -4.209 h -6.473 c -1.775 0 -3.214 -1.439 -3.214 -3.214 c 0 -1.775 1.439 -3.214 3.214 -3.214 h 10.782 c 0.125 -0.005 0.255 0 0.384 0.012 c 0.426 0.039 0.827 0.16 1.186 0.345 c 0.39 0.2 0.739 0.48 1.02 0.825 C 39.652 30.258 39.911 31.121 39.814 31.98 z" style="stroke: none; stroke-width: 1; stroke-dasharray: none; stroke-linecap: butt; stroke-linejoin: miter; stroke-miterlimit: 10; fill: #43273a; fill-rule: nonzero; opacity: 1;" transform=" matrix(1 0 0 1 0 0) " stroke-linecap="round"/>
</g>
</svg>
